<?xml version="1.0" encoding="UTF-8"?>
<svg id="kerala-map" xmlns="http://www.w3.org/2000/svg" version="1.1" viewBox="0 0 1429 2500">
  <defs>
    <style>
      .district path {
        stroke-width: 0.5;
        stroke-linejoin: round;
        stroke-linecap: round;
      }
    </style>
  </defs>
  <g id="kasaragod" class="district">
    <path d="M184.1,351.6l-1.5,4.2,4,6.9,3.5,9.2s3.5,9.4,4,10.7c.5,1.2,4.5,11.7,5,12.7.5,1,3.7,10.7,3.7,10.7l2,7.9,4.5,3.7s2.5-.7,2.5-2.5-3.5-9.2-4.5-11.2c-1-2-3.5-6.7-3.5-6.7l-3.5-9.7s-2.5-6.4-2.7-7.7c-.2-1.2-1.5-5.2-1.5-5.2l-1.2-2,3.2.2-.2-2.7-3.7.7v1.2s-1.5-5.2-1.5-6.2-.7-4.7-.7-4.7l-.5-2.2,3.2.7,1.2-2.7-2.2-2.2-2.5,1.5s-1.2.5-2-1.7-.2-2.5-1.2-3.2c-1-.7-3.7.2-3.7.2h0Z" />
    <path d="M225.5,415.6l-2.6-8.7-1.3-23.9-2.9-22,2.6-7.4,6.1-5.2s8.7,2.6,10,2.3,9.1-7.8,9.1-7.8l-1-2.3,10-1.3,5.8-4.2,1-11.3,3.2-7.4,12.3-1.3,11.6,1.3h20.4l10-8.1,10.3-6.1,13.9-2.6,10,.3-2.6-12-5.2-8.1s-4.2-2.9-3.6-4.5,5.2-12.3,5.2-12.3l-8.7-9.1-13.6-9.4-.6-18.8,1.9-9.4,6.8-3.9,9.7,3.2,4.5-2.6.3-14.5-7.1-10.7-8.1,1h-8.7l-4.2,6.1-.6,11-2.3,4.2-8.4-4.8-3.2-12s-4.5-4.2-5.8-4.5-11.6,1.6-11.6,1.6l-1.6-3.2.6-8.4-1.6-3.2-6.8-1.9-4.5-4.5-3.6-14.2,3.2-8.1,8.1-1.3,9.1-1.9,3.2-3.6-1.6-5.8-5.5-2.9-2.6-.3-7.4-8.7-6.8-2.6-4.2,2.9-.6,9.4-6.8,6.8-13.3,4.8-8.1-3.2-4.5-3.2s-2.3-1-1.6-2.6c.6-1.6,4.8-6.1,4.8-6.1l-3.6-10.7-7.8-2.6-9.1,5.2-5.8,3.6-5.5-5.5-2.9-6.8,6.5-9.4,2.3-7.1-2.6-3.9h-12l-12-5.2-4.8-5.5-4.5-3.2-5.8-.3-.6,8.7-1.6,4.2-5.5,2.3-6.8,2.9-6.8-1.9,2.3-7.4,5.2-1.9-1-7.4-6.5-8.1h-9.4l-7.4-3.2-6.8-5.2s-2.6-4.2-2.6-5.5,6.5-7.4,6.5-7.4l2.6-7.4.3-7.4-2.3-8.1s-5.8-1.9-7.1-1.3-5.8,3.2-5.8,3.2l-2.9,3.6-5.8-1.6s-4.5-2.3-6.1-1.3c-1.6,1-6.8,5.8-6.8,5.8l-9.1,2.6-10,4.8-10.3,3.2-12.9,2.9-2.9.3,5.8,15.5,6.1,6.5,1.9,5.5,1.9,10.7,6.8,12.3,4.5,10.7,3.9,10.3,2.3,8.4,10.3,1,1,1.9-5.8,5.5-1,4.8,9.1,20.7,9.7,15.5,3.6,13.6,2.6,7.8.6,6.5,5.5,3.6,3.6-1.9,1.3-2.9,2.9,1.3-2.6,6.1-2.6,2.3,12.6,25.5,10.3,17.8,7.1,7.8,3.2,12,6.1,11.6,6.1,12,6.5,21.7,3.9,15.2,1.6,6.8,2.9,2.3,1.9-2.3-1-4.5v-4.2l3.6-2.3,2.6-1.9,4.8,4.5,1,4.2-5.8-1.9-2.6-1.9-1.9,3.2,4.2,1.9h1.9l-.6,2.3v3.6l7.8,7.1,3.9,21.7,8.4,18.1,10.7,15.5,6.5,8.1Z" />
  </g>
  <g id="kannur" class="district">
    <path d="M221.3,405.2l3.5,10.2,7.2,4.7,2.7,4-11.4-2-8.2-3-6.4,5,5,12.4s6.4,12.9,7.4,13.4c1,.5,14.6,7.7,14.6,7.7l3-7.2-.7-10.4,5-7.4,4.2-2.7,2,6.4-4.2,4.2-1.2,8.4,10.2,9.9,10.2,8.7,10.7,15.9,8.9,6-2.5-5.5-5.7-11.7-11.7-10.2s-4.5-5.5-5.2-7.2c-.7-1.7,1.5-7.7,1.5-7.7l9.4-1.2s2-3.7,3.2-4,4.2-1,4.2-1l3.7-4.7,6.9.5,6.9,3-6,2-6,5s-2.5,5-1.7,6,12.9,3.2,12.9,3.2l6.9.7-1,3.7-7.9-.7-8.2,2.2-11.7-10.2-5.5-2-4.2,1,.7,5.5,9.9,6.4,6.9,10.9,4,8.7,2.2,1-.5-5.2,2.2-3,2.7,3.2,2.2,10.4,4,5.5s8.9,1,10.4,1,5.5,1,6.7.5c1.2-.5,7.4-8.9,7.4-8.9l7.7-7.9,2.7-7.4-1.5-7.9,2.5-5.2,8.9-1.2-3.7,3.2-2.2,3.2,1.5,9.2s-5,8.9-6.2,9.7c-1.2.7-7.9,7.9-7.9,7.9v4.7l4.7,4,4.7,1.7,3.2,4.7.2,2.7-4,.7-8.9-6.7-5-2.2-7.7.7h-8.2l-8.9-5-5,.2-1,6,13.9,19.3,6,9.9,3.7,9.7,4.7,3.7,12.2,1.2,5.2,1.7,19.3,19.6s4,3.5,4.2,4.7c.2,1.2-1.2,7.7-1.2,7.7l.7,2.5,4.2-3.5,2.2-2.7,1.7,1.7-2.7,3.2,1.2,6.7,3,4.5,4-4.2,4.2-6.7-1,7.4,1.5,6.2,14.1,14.9,8.9,9.4,6.7,10.4,4.2-2.2,6.4-1,5,.2s6.2,7.2,7.2,7.4c1,.2,4.2,0,5.7-.5s4.2-1.7,4.2-1.7c0,0,.7,3.7,4,1.2,3.2-2.5,7.2,2.2,2.7-5.2-4.5-7.4-7.2-6.7-4-10.2,3.2-3.5,2.2,1.7,6-3.2s1.2-2.2,4.7-5.7c3.5-3.5-1.5-5.2,6-5.7s9.4-2.5,12.9-4.7c3.5-2.2,3.5-1.5,8.7-3s12.2-9.7,13.4-13.1,1-9.4,4.7-8.7c3.7.7,4.5,4.7,11.7,6.4,7.2,1.7,12.4-.2,13.4-2,1-1.7-5-6-3.5-8.4s7.2-.7,9.2-2.5c2-1.7,5.2-6.9,1.7-10.9-3.5-4-3.5-6.2,0-8.7s6.7-3.2,10.7-3.5,8.2-.5,10.9.2c2.7.7,5,.5,7.2-2,2.2-2.5,3.7-3.7,7.7-2.7,4,1,11.4,2.5,16.4,5,5,2.5,8.7,3.5,13.6,0s6.2-6.2,5.5-9.9c-.7-3.7-4.5-5.2-3.7-8.7.7-3.5,4.2-6.4,7.4-10.2,3.2-3.7,4.7-3.5,3-8.4-1.7-5-6.4-8.7-5.2-11.7,1.2-3,1.2-3.5,1.2-3.5l-20.1-.2-16.9-10.7-6.4-7.7-2-9.7s-1.5-10.4-1.5-11.4-4.7-13.9-4.7-13.9c0,0-.7-9.4-1.2-10.7-.5-1.2-8.9-7.2-8.9-7.2l-18.4,3.5-9.4,2s-4.5-2.7-5-4.2-3-4-3-4l-4.2-8.9-7.7-7.2-12.7,4.2-4.2,5.7-5.2-7.4-8.4-13.4-15.6-12.4-7.7,1.2-2.7,3.5-8.7-6.9-18.6-24.3-1-6.4s-3-3.5-3.5-4.5-3.5-8.2-4-9.2c-.5-1-11.4-13.4-11.4-13.4l-9.2-11.2-6.4-8.9-4.2-1.5-2,6.2-11.4-.5-10.7-6.2s-38.9-3-50.1,5.2c-11.2,8.2-70.7,21.1-70.7,21.1,0,0-15.6,39.9-14.1,43.7,1.5,3.7,10.2,39.2,10.2,39.2h0Z" />
    <path d="M401.3,631.1c3-4.2,3.6-4.2,10.2-4.8,6.6-.6,7.2,2.4,12,4.8,4.8,2.4,4.2,4.2,9,2.4,4.8-1.8,3,.6,6,.6s4.8-1.8,4.8-1.8c0,0,6.6,2.4,1.2-3.6s-8.4-5.4-7.8-8.4c.6-3-1.2-2.4,1.8-3s3.6,1.8,6.6-3,3-4.2,4.8-7.2c1.8-3,.6-3.6,5.4-4.2s9.6-2.4,13.8-4.2,4.8-3,9.6-4.8,12-7.8,13.2-12c1.2-4.2-1.8-8.4,1.2-9s3.6,2.4,11.4,4.8c7.8,2.4,14.4,3,14.4,3,0,0-1.8-6-1.8-9.6s8.4-3,8.4-3c0,0,5.4-3,4.8-7.8-.6-4.8-4.8-6-4.8-9s6-6.6,13.8-6.6,12.6.6,16.2-2.4c3.6-3,4.8-4.2,10.2-3.6s9,3,17.4,4.8c8.4,1.8,12,6.6,15-1.2s-3-12.6-1.8-16.8,5.4-9.6,7.8-12c2.4-2.4,3.6-4.2,1.8-10.2-1.8-6-7.2-12-3.6-12h3.6" />
  </g>
  <g id="wayanad" class="district">
    <path d="M727.7,764.9l15.8-14.3,11.5-9.3,6.5-11.5,3.6-6.5,7.2-4.3,12.2-.7,3.6,2.9,6.5-5.7-7.2-11.5-2.9-7.9,5.7-7.9h9.3l10.8,8.6s7.9,3.6,10.8,3.6,10-7.2,10-7.2v-2.2l12.2,2.2,7.2-3.6,2.9-14.3,11.5-6.5,11.5-2.2,9.3-2.2,5.7-13.6-5-7.2-15.1-6.5-5.7-10-1.4-6.5h5l7.2-6.5-.7-7.2-2.9-2.9-.7-7.2-4.3-5-7.9.7-8.6,8.6-12.9.7-11.5-2.2-9.3-9.3-6.5-9.3-7.9-11.5-7.2-4.3-9.3,3.6s-2.2,2.9-5.7,1.4c-3.6-1.4-9.3-5-9.3-5l-5.7-8.6-2.2-14.3-4.3-12.2-12.2-4.3-14.3,7.2-9.3,1.4-5,2.9-3.6-8.6-.7-12.9,3.6-21.5-3.6-10.8-6.5-7.2-10,1.4-10.8,5.7-7.2,4.3s-5,2.2-9.3,4.3-13.6,5-13.6,5l-20.1,2.9-12.9-2.9-11.5-4.3-7.9-2.9-11.5,5-51.6,28-38,10.8s10,52.3,13.6,56.6c3.6,4.3,38.7,81,41.6,85.3s71,68.1,76.7,69.5,92.5,19.4,92.5,19.4h0Z" />
  </g>
  <g id="kozhikode" class="district">
    <path d="M511.2,563.4l15.8,5,9.3.7,7.2,7.2-1.4,7.9,5,7.9,3.6,12.2s8.6,2.2,10,5c1.4,2.9,12.9,10.8,12.9,10.8l12.9,5.7,1.4,12.9,5.7,11.5.7,9.3-2.9,11.5,11.5,14.3,6.5,10.8,10,5h5.7l12.9,15.8,14.3,9.3,10,.7,11.5-7.9,11.5-.7,9.3,1.4,2.9,8.6-5.7,8.6,1.4,4.3,8.6.7,8.6,5,9.3,8.6,4.3,2.9,10.8-3.6,7.2-5v8.6l-12.2,14.3-10,5-7.2,5,5,13.6-4.3,15.1-7.2,7.9-10.8,6.5s-2.2,7.2-5.7,7.9c-3.6.7-14.3,1.4-14.3,1.4,0,0-5-5-10.8-2.2-5.7,2.9-6.5,4.3-12.2,9.3-5.7,5-7.9,7.9-10,12.9-2.2,5-7.2,14.3-7.2,14.3,0,0-3.6,2.2-10.8,0s-5.7,0-9.3,2.9-2.2,5.7-10.8,7.2-8.6,2.2-12.2,4.3-10,4.3-10,4.3l-5.7,7.2v6.5l11.5,5.7,3.6,7.9s1.4,6.5-4.3,4.3c-5.7-2.2-10.8-5-10.8-5l-5,2.2-1.4,7.9-2.9,4.3s-.7,4.3-7.2,5.7c-6.5,1.4-10.8-4.3-10.8-4.3l4.3-16.5,5-7.2-4.3-.7-5,7.9-7.2-1.4s-7.2-12.2-7.2-15.1-7.9-17.9-7.9-17.9l-6.5-25.1.7-12.2-9.3-12.2-7.9-9.3s-5-8.6-1.4-9.3,7.2-2.2,7.2-2.2l-8.6-10-18.6-32.3-13.6-15.8h-14.3l-16.5-20.8-10.8-21.5.7-7.2,4.3,1.4,3.6-6.5,9.3,6.5,4.3-5-7.2-5h-6.5l-5.7-3.6-2.2,8.6-2.2-7.2-3.6-12.9-10-28-9.3-20.8,38-50.9,70.3-15.1Z" />
  </g>
  <g id="malappuram" class="district">
    <path d="M562.8,914.7s-2.2,8.6.7,10,10,7.9,10,7.9l5.7,5.7-1.4,4.3-6.5-5h-5.7l-7.9,6.5,5.7,16.5,10.8,32.3,2.9,13.6,5.7,26.5,7.2,22.2-.7,13.6,5.7,18.6.7,8.6-1.4,10,1.4,12.9s7.2,6.5,8.6,3.6c1.4-2.9-1.4-10-1.4-12.9s5,13.6,5,13.6l7.2,3.6,9.3-12.2.7,7.2-8.6,8.6h-9.3l-.7,5.7,3.6,16.5,4.3,3.6,3.7-3.8s.1,2.1-.7,8.2c-.9,6.1,9.6,34.8,9.6,34.8v-10.4l13.9,7,6.1-5.2,6.4,2.4,2.6-9.6,11.7,9.8,3.7-1.7,1.7-11.5,10.8-5.9,10.1-12.2,2.4-4.8-15.4-12.6-5.2-7-.9-11.3s1.7-4.4,1.7-7.8-.9-9.6-.9-9.6l-.9-7.8,11.3-2.6,15.2.6,9.8-13.6s2.9-7,7.2-7.9c4.4-.9,17.3-14.1,17.3-14.1l3.5-2.2,13,6.6,8.8-5.1,12.2,9.6,12.2.9s4.4-2.6,7.8-5.2c3.5-2.6,10.8-10.7,10.8-10.7l18.7,7.8,8.8-3.2,1.1-9.4s9.9,1.7,14.2,1.7c6.8,0,1.6-4.4,1.6-7s.5-10.6.5-10.6l2.2-3.3-8.2-5.9s-5.6-6.1,1.3-8.8c7-2.6,9.9-6.5,9.9-6.5,0,0,3.3-8.4-.2-11.8s-9.1-9.2-14.4-8.4c-5.6.8-11.4-2.7-11.4-2.7l12.4-11.3,12.1-5.8,8.4-12.5s3.7-3.1,8-3.1,30.2.6,30.2.6c7.6-4.7,10.1-12.3,12.8-20.4,1.4-4.1-5.6-16.6-8.5-22.3-2.9-5.7-5.1-13.3-5.1-13.3l-3.5-7.3s.5-8.2,3.5-11.3c11.2-11.7,5.9-14.4,13.1-15.7,12-2.1,30.5-20,32.2-24.4s1.7-11.3-.9-16.5-7.8-13.1-15.7-21.8c-7.8-8.7-13.1-6.1-18.3-8.7-5.2-2.6-13.9-2.6-21.8-9.6-7.8-7-5.2-13.1-17.4-14.8-12.2-1.7-15.7.9-20-2.6s-8.7-5.2-8.7-5.2c0,0-6.1,7-9.6,3.5-3.5-3.5-.5-6.7-9.3-7.6-8.7-.9-7.3.6-9-3.8s-3.4-4.5-6.9-3.6-5.3-.7-8.8-.7-11.3,3.2-9.6-2,2.4-16.5.6-19.3c-2-3,.3-10.1-4-11.8-4.4-1.7-54-.9-58.3,10.4s-80.1,82.7-94,91.4c-13.9,8.7-70.5,94-70.5,94l1.2,4.8Z" />
  </g>
  <g id="palakkad" class="district">
    <path d="M890.1,900.6l9.8-5.2,8.6,1.2h4l4-6.3,6.9-5.2,6.3,1.2,9.2,6.3,12.1,2.3,14.4.6,12.1-4,15.5-.6h9.8l8.1-4.6,5.2-3.5,9.2-7.5,8.6-4,6.9,1.2.6,15.5-2.9,7.5-5.2,7.5-8.1,6.9-5.2,7.5-1.2,8.1,3.5.6,6.3-5.8,8.6.6,8.6,4.6,5.8,6.3-1.2,6.9,2.3,16.1-2.9,7.5v6.3l4.6,5.2,8.6,2.9,2.9,2.9,9.2-4,3.5,2.3-4.6,8.6-10.9,2.9-20.7-5.2h-8.1l-4.6,4.6-5.2,1.7-4.6,17.3-4,9.8-11.5,12.1-1.7,4.6,8.1,8.6,23.6,9.8,25.3,9.2,39.7,16.7,8.1,7.5s0,12.1,1.7,15c1.7,2.9,9.8,7.5,9.8,7.5,0,0,12.1,5.8,14.4,6.9,2.3,1.2,6.9,12.1,6.9,12.1l-3.5,16.1-7.5,27.6-1.2,24.2-4.6,7.5-15-3.5-10.4-2.3-6.3,10.4,6.3,9.8,10.4,6.3,3.5,12.7-8.6,14.4-1.2,11.5-1.2,14.4s-2.9,20.7-2.9,23-2.3,17.3-2.3,17.3c0,0,7.5,12.7,8.6,15,1.2,2.3,4.6,13.8,4.6,13.8v17.8l-16.1,12.1s-55.8,9.2-61-8.1-4.6-2.3-42-9.8c-37.4-7.5-48.4-13.2-69.7-40.3-21.3-27.1-103.1-15-80-68.5s47.8-77.1,22.5-80-104.8,21.9-135.9,8.1c-31.1-13.8-65.1-31.7-62.8-49.5,2.3-17.8-16.7-60.5,1.2-59.9,17.8.6,58.1-10.4,72.5-19s97.9-4,94.4-26.5-22.5-57-14.4-63.3,36.3-11.5,54.1-25.3,17.8-32.8,17.8-32.8h0Z" />
  </g>
  <g id="thrissur" class="district">
    <path d="M624.1,1184.5l17.8,6.9,3.5-4.6,6.9,3.5,2.9-5.2,1.7-5.8,6.9,6.3,5.8,4,2.9-6.3v-6.9l10.4-5.2,9.2-9.8,4.6-8.1,12.1-1.7,13.2,4.6s9.8,1.7,13.2,1.7,9.2,1.7,9.2,1.7l5.8,2.3,4-2.9-3.5-6.3,2.3-5.2,6.9-5.2v-12.7s4-4,7.5-4,8.1,3.5,8.1,3.5l6.3,9.2,1.2,4.6,5.8-1.7s5.8,0,8.6,1.2c2.9,1.2,13.8,5.2,13.8,5.2,0,0,7.5,1.2,10.4.6,2.9-.6,8.6-.6,11.5-.6s13.8-2.9,13.8-2.9l4.6-5.2s9.8,2.9,12.1,3.5,12.7,2.3,12.7,2.3l11.5-2.9,8.1-2.9,6.3.6,4,5.8-1.2,9.8-2.3,6.9-1.2,5.2,1.7,6.3-4.6,5.2s-3.5,4-6.3,7.5-6.9,8.6-6.9,8.6c0,0-1.7,6.9-1.2,11.5.6,4.6,2.9,8.6-.6,11.5-3.5,2.9-9.8,9.8-6.3,13.2,3.5,3.5,8.1,8.1,10.9,12.1s8.1,17.8,10.4,19c2.3,1.2,4.6,6.3,7.5,10.4s9.2,10.9,9.2,10.9c0,0,17.3,9.2,20.7,11.5s35.1,22.5,39.1,25.3c4,2.9,9.2,7.5,9.2,7.5,0,0,5.2,4,1.2,5.8-4,1.7-5.8,4.6-3.5,6.9s10.4,5.8,13.8,5.8,7.5,4.6,9.8,2.9c2.3-1.7,4-4.6,6.3-4,2.3.6,5.8,1.7,8.1,2.9,2.3,1.2,20.7,2.9,20.7,2.9,0,0,4.6-2.9,8.1-3.5s6.9,1.2,14.4,4.6c7.5,3.5,13.8,5.2,9.8,6.9s-9.2,0-10.4,3.5c-1.2,3.5-1.2,6.9,2.3,8.1,3.5,1.2,7.5,1.2,8.6-2.3,1.2-3.5,4-5.8,6.9-4,2.9,1.7,4.6,2.3,8.6,2.3s10.9-3.5,15-3.5,3.5,4,3.5,4l-2.3,12.1-1.2,8.6,2.9,5.2,12.1,3.5,2.3,3.5-6.9,1.7-15-2.9h-10.9l-8.6,1.7-10.9,5.8-10.9-2.3-11.5,1.7-11.5,1.2-12.1-1.2-14.4-7.5-10.4-.6-10.4.6-9.8-2.3-10.4-1.2-4.6,4-9.8,2.9-8.6-1.2h-12.1c-2.3,0-12.1-2.3-12.1-2.3l-7.5-5.2-6.9-1.2-4.6.6-5.2,4.6-4,5.2-12.1,6.3-8.6.6-6.9,4-2.9,7.5-5.2,4.6-9.2,1.2-7.5,4-4.6,6.3-6.9,3.5-3.5,7.5,1.7,5.2-5.8,3.5-6.9-1.2-4,2.3-6.3-2.3-8.1-4.6-4.6-3.5-6.9-4.6-2.9-2.3,5.2-5.8-2.3-2.9-6.9,1.7-9.2-8.6-1.7-5.8,6.9-2.3-8.6-2.9-10.4-4.6-5.8-2.9,8.6,12.7,10.9,13.8s3.5,4.6,2.9,9.2c-.6,4.6-4.6,6.9-4.6,6.9,0,0-8.1.6-12.7,2.3-4.6,1.7-15,4-15,4l-5.8-4,4.6-7.5-7.5-18.4-5.8-35.7-10.9-29.4-4.6-18.4-16.7-33.4-9.8-17.8-5.2-10.4,2.9-1.2,10.9,12.7,4,4,.6-4.6-5.2-8.6-3.5-9.8,11.5,6.3,4,6.9,1.2,9.2h4.6l-2.3-9.2,8.6-5.8.6-3.5-8.6-1.7-6.9-2.3-1.7-8.6-3.5-1.7-6.3-5.2-3.5-.6-1.7,6.3h-5.8l2.3,7.5-4.6.6-3.5-10.4,6.3-4-8.1-3.5-16.7-25.3-15.5-16.7-6.9-14.4-6.3-12.7ZM793.1,1449.3s10.2,9.6,14.4,9c4.2-.6,6-3.6,8.4-3,2.4.6,10.2-1.2,10.2-1.2,0,0-2.4-4.8.6-9,3-4.2,7.2-4.2,8.4-7.2,1.2-3,9-10.2,9-10.2,0,0,9.6-.6,13.2-2.4,3.6-1.8,4.2-12,12.6-14.4,8.4-2.4,9-1.2,15.6-4.2,6.6-3,4.2-1.2,10.2-7.2,6-6,8.4-12,17.4-5.4,9,6.6,13.8,6.6,27,6.6s19.2,1.2,22.2-1.2c3-2.4,4.2-3.6,12.6-3.6s-1.2.6,9,2.4,10.8,1.2,15.6.6,7.2-1.2,14.4,3c7.2,4.2,9.6,6,16.2,6s8.4,1.2,12.6,1.2-4.2,0,7.8-3c12-3,11.4-1.8,15,0,3.6,1.8,15.6-4.8,19.8-6,4.2-1.2,11.4-1.2,16.8-.6,5.4.6,21,1.2,21,1.2l.6-.6" />
  </g>
  <g id="ernakulam" class="district">
    <path d="M825.6,1626l-.6,8.6,4,8.1v7.5l1.2,8.1s2.3,7.5,3.5,9.8c1.2,2.3,5.2,16.1,5.2,20.7s1.7,10.4,1.7,10.4c0,0,5.2,6.9,7.5,5.8,2.3-1.2,3.5-10.4,3.5-12.7s0-6.3-.6-8.6c-.6-2.3-3.5-6.9-3.5-10.9s0-8.6.6-12.1c.6-3.5-2.9-3.5-5.2-6.9-2.3-3.5-4.6-.6-5.2-6.9-.6-6.3-.6-8.1-.6-10.4s7.5-1.2.6-5.2-6.9-4.6-6.9-4.6l-5.2-.6ZM841.7,1634.7l.6,8.1,6.3,6.9s2.9-1.7,1.7-5.2c-1.2-3.5-2.3-4.6-4-6.9-1.7-2.3-4.6-2.9-4.6-2.9ZM748.5,1457.9s-.6,10.4,1.2,13.2c1.7,2.9,6.9,4.6,8.6,9.8,1.7,5.2-2.3,1.7-.6,7.5s5.8,8.1,5.8,10.4-2.9,1.7-2.9,1.7c0,0-4-3.5-4,1.2s4.6,13.8,5.2,17.3-4.6,2.3-.6,5.8c4,3.5,8.6,4.6,9.8,8.1s1.7,3.5,4.6,11.5c2.9,8.1,2.9,13.8,5.2,16.1,2.3,2.3,4.6,3.5,5.2.6s1.7-2.9,1.7-2.9c0,0,1.7-4,.6-11.5-1.2-7.5,1.2-13.2-1.2-17.8-2.3-4.6-1.7-6.9-7.5-14.4-5.8-7.5-6.9-3.5-9.2-13.2-2.3-9.8-3.5-12.7-4.6-19.6-1.2-6.9,1.7-5.8-3.5-12.1-5.2-6.3-13.8-11.5-13.8-11.5h0ZM823.3,1594.9v4.6l-2.9,3.5s-5.8.6-4,4.6,3.5,8.6,8.1,8.6,8.6,5.2,9.8.6c1.2-4.6,2.3-5.8-.6-9.2s-2.3-2.3-4.6-5.8c-2.3-3.5-2.3-7.5-2.3-7.5l-3.5.6ZM793.9,1535.6l2.3,7.5s1.2,5.2,1.2,7.5-2.3,5.8-2.3,5.8c0,0-2.9-3.5-3.5-6.3s1.7-4.6,1.7-4.6l-2.9-5.8,3.5-4ZM777.2,1574.2l-.6,8.1,6.3,13.8,5.8,15.5s2.9,8.1,4,12.1,2.9,17.3,2.9,17.3l1.7,15.5,5.8,1.7s3.5-1.7,2.9-4-3.5-5.8-3.5-5.8l-.6-4.6.6-5.8,5.8-7.5.6-10.9-4-7.5,5.2-4s1.2-2.3.6-4.6c-.6-2.3-6.9-7.5-6.9-7.5l-6.3-5.2-5.8-3.5-5.2-2.3,2.9-4.6-.6-5.2-6.9-2.3-4.6,1.2ZM795.7,1580.6l6.3,8.1,4-3.5-1.7-5.2-4-4.6-4.6,5.2ZM806.6,1593.2l4-.6-.6-2.9-6.3-2.3,2.9,5.8ZM798.5,1658.4c3.6-3,10.2,1.2,7.2-4.8-3-6-5.4-3-4.2-7.2,1.2-4.2,4.2-1.8,4.2-1.8M1031.4,1382.5l4,13.8-2.3,11.5-9.2,12.7-8.1,6.9-4,8.1-4.6,13.8-2.3,4,4.6,5.8,12.7,5.2,10.9,9.8,9.8,7.5,10.9,6.9,8.1,5.2,11.5,8.6,6.9,6.3-1.2,5.2-10.4,6.3-5.2,4-6.9,4.6-10.4,6.3-12.1,5.2-8.1,6.3,1.2,9.8.6,6.9-1.7,10.4-10.4,4.6-9.2-1.2-2.3,5.8,2.9,6.3,2.3,9.2v11.5l-3.5,5.8-15,5.2-11.5,2.3-4.6,13.8-6.9,4.6h-11.5l-6.9-5.2-6.3-7.5,4-6.3-2.3-5.2-8.1-2.3-8.1,1.2-8.1.6-9.8,4.6-8.1,8.1-9.2,6.3-14.4,3.5-10.4-3.5-6.3-13.2-7.5-20.7s-6.9-10.4-9.8-12.1c-2.9-1.7-6.9-8.1-6.9-8.1,0,0-2.9-9.8-4.6-12.1s-7.5-6.3-7.5-6.3l2.9,9.8-5.8,4-7.5-8.6-5.8-8.6-1.7-8.6,1.7-8.1,1.2-8.6v-8.1s5.8,0,6.9-2.9c1.2-2.9,0-5.8,0-5.8l-13.8-2.3-7.5-2.9,2.3-10.4.6-13.2-5.2-5.8-5.2-3.5,1.2,8.1,2.9,6.3-1.2,4.6-7.5-6.3-3.5-8.1v-7.5l-4.6-11.5-12.7-23,7.5-1.7s15.5,2.9,18.4,3.5,14.4,8.6,16.7,9.2,22.5,7.5,22.5,7.5l11.5.6,4-4s10.4,8.6,12.7,9.2c2.3.6,1.2-4,1.2-4l-4-6.3-5.8-4h-4.6l-5.8,2.9h-10.4l-6.3-4-8.6-4-12.1-4-10.4-4-6.9-4,2.9-2.3,9.2,1.7,4,.6s16.7-4,21.9-8.1c5.2-4,10.4-10.4,15-13.8,4.6-3.5,14.4-10.9,14.4-10.9,0,0,15-12.7,20.2-15,5.2-2.3,19-10.4,21.9-11.5,2.9-1.2,15.5-6.3,26.5-4s21.9,5.8,26.5,5.2c4.6-.6,31.7-2.9,31.7-2.9l16.7.6,36.8,8.1ZM1034.5,1394.2s1.8,7.8-3,14.4c-4.8,6.6-3,4.8-9.6,12.6-6.6,7.8-9.6,7.8-13.2,19.2-3.6,11.4-6,15.6-3.6,17.4,2.4,1.8,9.6,1.8,15.6,6,6,4.2,6.6,4.8,13.2,10.8,6.6,6,6,4.8,12,9,6,4.2,0-1.2,12.6,7.8,12.6,9,13.2,9,16.8,13.2,3.6,4.2,6,6,.6,10.2-5.4,4.2-13.2,10.8-17.4,12.6-4.2,1.8-3,4.8-9.6,7.2-6.6,2.4-5.4,1.8-13.2,4.8-7.8,3-10.8,6-10.2,12,.6,6,4.2,12.6,1.2,18-3,5.4,2.4,7.2-7.2,8.4s-15.6-2.4-16.8,1.2c-1.2,3.6,4.2,6,5.4,14.4,1.2,8.4,1.8,15.6.6,19.8-1.2,4.2-7.2,3.6-12.6,6-5.4,2.4-16.8,2.4-19.2,6.6-2.4,4.2.6,12.6-4.2,15-4.8,2.4-8.4,4.8-15,1.2-6.6-3.6-6.6-4.2-10.8-7.8-4.2-3.6-7.2-2.4-4.2-7.2,3-4.8,6-6,3-9-3-3-4.2-4.8-10.2-3s-5.4,2.4-10.8,1.8-8.4,1.2-12.6,4.2c-4.2,3-4.2,1.8-7.8,6.6-3.6,4.8-16.8,13.8-22.2,11.4-5.4-2.4-14.4-2.4-14.4-2.4l-3-4.8" />" />
  </g>
  <g id="idukki" class="district">
    <path d="M1167.6,1863.2l13.8,9.2,10.4,1.2s6.3.6,8.6,1.2c2.3.6,7.5,2.3,7.5,2.3l9.2-1.2h9.8l7.5-1.2,4.6-6.3,8.6-5.2,8.1-4.6,5.8-2.9,5.2-6.9,8.6.6,6.9.6s2.9-1.2,6.3-1.2,6.9,3.5,6.9,3.5l4,4,5.8-1.7,8.6-5.8,9.2-2.9,12.7,4.6,8.1,3.5,14.4,2.3,9.2-3.5,9.2-.6,12.1,6.3,6.3-6.3,17.3-16.7s7.5-8.1,5.8-12.1-5.8-9.8-8.1-10.9c-2.3-1.2-9.2-6.9-9.2-6.9l-8.1-20.7.6-13.8-10.9-5.2-12.7,3.5s-8.1,4.6-9.2,6.9c-1.2,2.3-6.3,5.2-6.3,5.2l-4.6,4-10.9-1.2-16.1-5.2-13.2-8.1-12.7-6.9v-8.6s11.5-28.2,12.7-31.1c1.2-2.9,2.9-12.7,4-15,1.2-2.3,5.2-10.4,5.2-10.4l2.9-12.7,4-10.4,4.6-12.7-2.9-10.9s-5.2-3.5-6.3-6.3c-1.2-2.9-2.3-18.4-2.3-18.4,0,0-.6-8.6.6-12.1,1.2-3.5,3.5-9.2,3.5-9.2l8.6-14.4,7.5-12.7,4.6-10.4-1.2-11.5s-5.2-6.3-6.3-8.6c-1.2-2.3-5.2-14.4-5.2-14.4,0,0,1.2-5.2-1.7-9.2-2.9-4-14.4-16.1-14.4-16.1,0,0-6.3-6.9-6.3-9.2s-2.3-5.2-.6-7.5c1.7-2.3,9.8-10.9,12.1-11.5,2.3-.6,10.4-1.7,10.4-1.7l8.6-4,4.6-8.1-.6-13.8,2.9-12.1s5.2-12.1,3.5-14.4c-1.7-2.3-5.2-7.5-5.2-7.5l-8.1-1.2s-4.6-2.9-4.6-4.6v-6.9l-5.2-13.2-6.9-12.1-3.5-15-7.5-7.5-10.9-4.6-9.2-1.2s-6.3-1.2-9.8,3.5-12.1,8.1-13.2,10.9c-1.2,2.9-1.7,6.3-7.5,7.5-5.8,1.2-6.9,1.7-12.1,3.5s-9.2,1.7-13.2,4.6c-4,2.9-8.1,9.2-8.6,11.5-.6,2.3-1.2,9.8-3.5,12.7s-5.2,2.9-8.1,5.2-5.8,6.9-8.6,8.6-10.4,3.5-10.4,3.5c0,0-2.9,6.3-7.5,5.2s-11.5-7.5-11.5-7.5c0,0-6.9-7.5-11.5-4.6-4.6,2.9-7.5,10.4-9.8,10.4s-4-5.2-9.2-9.2c-5.2-4-7.5-4.6-11.5-9.2-4-4.6,1.7-6.3-10.4-8.6-12.1-2.3-21.9-4.6-29.9-5.2-8.1-.6-67.9,9.2-71.4,10.9s-22.5,24.8-27.1,38c-4.6,13.2-5.2,35.7,6.3,47.2,11.5,11.5,24.8,27.1,16.1,38-8.6,10.9-31.7,25.3-35.7,40.3-4,15,5.8,28.8,7.5,42,1.7,13.2-8.1,48.9,17.8,61,25.9,12.1,127.8,81.8,141.1,100.2,13.2,18.4,21.3,89.8,21.3,89.8h0Z" />
  </g>
  <g id="kottayam" class="district">
    <path d="M985.1,1621.4l20.2,12.1,10.4,5.2,6.3,2.9,8.1,8.6,5.8,4,7.5,1.7,12.1,1.7s5.8-.6,10.9-.6,7.5-1.2,9.8-1.2,12.1,7.5,12.1,7.5l6.3,9.8,9.2,6.3,8.1,5.2,8.6-1.2,5.2.6,6.9,10.9,2.3,10.4,6.9,9.8,6.3,10.9,5.2,16.1,4.6,8.1,2.3,10.9.6,6.9,4.6,9.2,5.8,10.4v6.9l6.3,7.5,4,10.9-3.5,13.2-6.3,8.1-1.2,13.2,4,14.4,6.9,6.9s5.8,2.9,2.3,2.9-17.8-4.6-23-6.3-17.3-6.3-17.3-6.3c0,0-9.8-3.5-12.1-4-2.3-.6-7.5-3.5-10.4-2.3-2.9,1.2-4.6,3.5-9.2,2.9-4.6-.6-8.1-1.2-12.1-2.3s-9.8-1.2-9.8-1.2c0,0-5.2,2.9-8.1,4-2.9,1.2-4,6.3-8.6,4.6-4.6-1.7-9.2-4-9.2-4,0,0-6.9-6.3-4.6-6.3s10.4-2.9,10.4-2.9l2.3-5.8-10.9-1.2s-4.6,2.9-8.6,3.5c-4,.6-6.9,1.7-9.2.6-2.3-1.2-5.2-1.7-9.8-4-4.6-2.3-8.1-2.3-10.9-3.5s-8.6-3.5-11.5-1.7c-2.9,1.7-5.2,2.9-8.6,5.2-3.5,2.3-3.5,6.3-8.1,7.5-4.6,1.2-8.1,3.5-9.2,5.8s-2.3,12.7-2.3,12.7c0,0-3.5,6.3-6.9,7.5-3.5,1.2-13.2-1.7-18.4-1.7s-2.3-3.5-11.5-4-10.9,1.7-12.7-1.7c-1.7-3.5-6.3-6.9-4.6-10.9,1.7-4,7.5-5.8,4.6-11.5s-1.7-7.5-6.3-10.9c-4.6-3.5-6.3-6.9-12.1-8.6s-9.8-3.5-9.8-3.5l9.2-1.2,4.6-6.3,1.2-5.8s-5.2-8.6-6.9-10.9c-1.7-2.3-2.9-6.3-6.9-8.1s-8.6.6-8.6.6c0,0-1.2,6.3-7.5,5.8-6.3-.6-9.8-5.8-9.8-5.8,0,0-.6-3.5-.6-7.5s1.7-6.9,2.3-9.8c.6-2.9,1.7-6.9,1.7-10.4s-1.7-9.2-2.9-11.5c-1.2-2.3-4.6-10.9-4.6-10.9,0,0-2.3-9.2-2.3-11.5s-5.2-10.9-5.2-10.9l-6.9-4.6,3.5-9.8s-1.2-8.6-1.7-10.9c-.6-2.3-3.5-9.2-3.5-9.2,0,0-5.2-6.3-1.2-7.5,4-1.2,4.6-4.6,4.6-4.6l-8.6-1.7v-8.6s2.3-6.9,3.5-9.2c1.2-2.3,6.3-8.6,6.3-8.6,0,0,36.3-16.1,40.9-18.4,4.6-2.3,55.3-2.9,57.6-2.3s21.9,0,21.9,0h0Z" />
  </g>
  <g id="alappuzha" class="district">
    <path d="M963.2,1860.4v15.5l-2.9,3.5-3.5,4.6-2.9,2.9,2.9,9.8,9.2,10.9,6.3,4,4.6,5.2,5.2.6,7.5-1.2,5.8,1.2,8.1,3.5,7.5,1.7,8.6-.6,8.1-2.3,4.6,1.2v3.5l-.6,2.9,1.2,5.2-1.2,7.5-5.8,8.1-5.8,5.8-2.3,5.8v7.5l2.9,6.9,4,6.9,1.2,6.9,2.3,6.9,2.3,8.1-4.6,8.6-10.4,2.9-4,2.3-4.6,6.9-9.2,2.3-9.2.6-8.6,6.3-13.8,4.6-8.6-3.5-5.8-8.6-7.5-2.9-9.8,1.2-6.9,2.9-8.6-2.9-15.5-13.2,3.5-4-4.6-11.5-2.3-6.9v-9.8l.6-6.9-3.5-4.6-4-9.2-6.3-3.5-4.6,6.3,5.2,10.4,5.2,8.6,4,10.4,4,10.9-2.9,4.6-10.4-10.4-3.5-14.4-4.6-10.9-6.3-12.7-15.5-29.4-13.8-34-13.2-47.8-6.3-13.2-1.2-11.5-8.6-54.7v-20.7l-2.3-10.4-2.3-15-8.1-51.2-1.7-9.8,3.5-3.5,2.9-2.9-4.6-4,1.7-4,4.6-1.2,1.7-6.3,3.5-1.2.6-4.6v-6.3l2.9-3.5,3.5,3.5v10.9l5.8,10.9v5.2l.6,8.6,3.5,10.9,5.2,19,1.2,11.5v6.9l-3.5,5.2,8.1-1.7,4-5.8,2.9,3.5-.6,7.5,5.8,6.3,9.2,4.6s5.2,4.6,2.3,6.9c-2.9,2.3-5.2,5.8-5.2,5.8,0,0,2.3,10.9.6,15s-5.8,12.1-5.8,12.1c0,0-4,6.3-4.6,9.2-.6,2.9-4.6,18.4-5.2,21.3s6.3,13.2,6.3,13.2l16.1,8.1,2.3,1.2,4.6-.6s-.6-2.3,1.7-3.5c2.3-1.2,2.9-3.5,2.9-3.5,0,0,6.3,9.2,8.6,10.9s4.6,0,4.6,0l2.3-6.3,10.9,2.9,16.1,5.2,42.6,34Z" />
  </g>
  <g id="pathanamthitta" class="district">
    <path d="M1338,2026.2l-13.8,2.9-12.7,3.5-17.3,3.5-19,.6-8.6-1.2s-1.7,2.9-4.6,2.9-13.8-.6-13.8-.6c0,0-8.1-1.7-10.4-1.7s-12.7-.6-12.7-.6l-9.8-2.3-10.4-7.5s-5.2-2.3-7.5-2.3-9.8,5.2-9.8,5.2c0,0-12.7-4-15.5-5.2-2.9-1.2-9.8-2.9-9.8-2.9l-11.5,3.5s-12.1-3.5-16.1-5.2c-4-1.7-5.8-1.7-5.8-1.7,0,0-9.2,5.8-14.4,6.9-5.2,1.2-4.6,5.8-11.5,4.6-6.9-1.2-20.2-3.5-25.9-4-5.8-.6-6.9,0-10.4.6s-9.8.6-12.1-.6c-2.3-1.2-5.2-2.9-8.1-4-2.9-1.2-7.5-4.6-10.4-5.2-2.9-.6-8.1,1.2-10.4-1.2-2.3-2.3-15.5-12.7-15.5-12.7,0,0,8.1-29.4-10.4-44.3-18.4-15-20.2-13.2-37.4-36.8-17.3-23.6-18.4-40.3-13.8-44.3,4.6-4,17.8-2.9,22.5-16.1,4.6-13.2,16.7-33.4,24.8-32.2,8.1,1.2,38.6,3.5,52.4,5.2,13.8,1.7,33.4-4.6,36.8,1.2s11.5,10.9,40.9,13.2c29.4,2.3,55.3,19,78.3,7.5s40.9-21.3,69.7-20.2c28.8,1.2,43.8,2.9,62.2-.6,18.4-3.5,53,8.1,53,10.9s-.6,12.7-.6,12.7l-2.9,9.2-4,24.2-3.5,9.2-10.4,11.5-9.2,16.1-2.3,23.6s1.2,6.9,0,9.8c-1.2,2.9-6.3,13.8-7.5,17.3-1.2,3.5-2.9,11.5-4,15-1.2,3.5-1.2,14.4-1.2,16.7s-5.8,16.1-5.8,16.1h0Z" />
  </g>
  <g id="kollam" class="district">
    <path d="M929.8,2016.4l-1.2,10.9h-6.9l-5.2,2.3,13.2,19.6,5.2,13.8,2.9,7.5h4.6l5.8,5.8-1.2,5.8-6.9-2.9-4.6-3.5-4.6-10.9-3.5-8.1-4-9.8-5.2-9.2-3.5-4-2.3-6.3-3.5-5.2-5.8,1.2,9.2,12.7,4,6.3-1.2,8.6,7.5,6.9,6.3,15,5.2,15.5,1.7,17.8,4.6,26.5,5.2,5.8,2.9,3.5,4.6-3.5-3.5-10.4,5.2-17.8,5.2-3.5,1.7,1.2-1.7,4-4.6,9.2,1.2,9.2,5.8-1.2,2.3-9.2,2.3-8.1,6.3-5.8,4-6.9.6-9.8,4.6-2.3,1.7,4,2.3,2.9,2.9,3.5-6.9,5.2-2.9,6.3,6.9,3.5,8.1-6.9,4.6-5.8,8.6-.6-1.2,4.6-5.2,4,2.9,5.2,7.5,1.2.6,6.3-5.8-4-8.6-2.3-1.2,4.6,1.7,7.5-10.9-5.2-9.8-.6-8.6,7.5,2.3,4.6,7.5,1.7-.6,3.5-10.9,1.7-4,4,5.8,1.7,3.5-2.3,3.5,2.9,5.8-4,8.6-1.2-2.3,5.8-9.8,3.5-8.6,1.7-6.3-4.6-4.6-4.6-3.5,2.9.6,7.5,10.4,14.4,12.7,7.5,11.5,8.1,1.2,8.6,6.9,5.8,4.6-2.9-2.9-6.3,12.1,1.7,4.6-8.1,2.3,1.2-1.2,5.8,4.6,5.2-7.5-.6-1.7,3.5h-5.2l-4-1.2.6,9.2,5.8,5.8.6,4,5.2,4.6,3.5-2.9,4.6-.6,5.2,5.8,6.9-5.8s2.3-8.1,4.6-9.2c2.3-1.2,13.2-2.9,16.1-2.9s11.5,2.9,13.8,2.9,6.3-3.5,6.3-3.5h4.6l.6-6.9-5.8-8.6-3.5-5.8,6.9,2.3s4,4,6.3,4,4.6,3.5,8.6,2.9c4-.6,10.4-2.3,10.4-2.3,0,0,3.5,1.2,6.9,5.2,3.5,4,2.9,6.3,6.9,8.1s6.9,3.5,11.5,2.9c4.6-.6,11.5-2.9,15.5-2.3s5.8,1.7,6.3,6.9c.6,5.2-1.7,10.9,0,13.8s5.8,5.2,9.8,4c4-1.2,8.1-1.2,11.5-3.5,3.5-2.3,10.9-5.2,15.5-5.2s6.3,2.9,11.5,1.2c5.2-1.7,10.9-6.9,12.7-10.4s-.6-13.2,0-15.5c.6-2.3,5.2-5.8,8.1-8.1,2.9-2.3,9.2-5.2,13.8-4,4.6,1.2,5.8,2.9,10.9,5.2,5.2,2.3,6.9,3.5,12.7,6.3s8.1,2.9,12.7,6.3,8.6,8.6,13.8,9.8,10.4,6.3,16.7,6.9c6.3.6,12.7,6.3,15.5,4s4.6.6,4.6.6c0,0,2.9-7.5,4-10.4,1.2-2.9,7.5-13.2,7.5-13.2l7.5-9.8v-12.7l-4-10.4-19-26.5s-16.1-23-18.4-25.3-9.8-12.7-9.8-12.7c0,0-4.6-13.2-4.6-15.5s2.9-7.5,2.9-7.5c0,0,20.2-6.9,22.5-8.6s10.9-13.2,10.9-13.2c0,0,10.9-17.3,11.5-19.6s4.6-12.1,4.6-12.1c0,0-17.3-6.3-38.6-2.9-21.3,3.5-72,1.2-91-4.6-19-5.8-35.1,3.5-77.1-1.7-42-5.2-71.4-1.7-89.2-2.9-17.8-1.2-27.6-9.2-55.3-1.7-27.6,7.5-57.6,6.9-57.6,6.9h0Z" />
  </g>
  <g id="thiruvananthapuram" class="district">
    <path d="M1026,2208.1v10.4l-4,5.2,5.8,13.8,68.5,80.6,20.7,26.5s5.2,9.2,7.5,10.9c2.3,1.7,7.5,3.5,7.5,3.5l10.4,19.6,9.2,8.6,5.8,10.9,13.2,11.5,9.8,8.6,3.5,8.6,5.2,7.5,10.4,8.6,10.4,7.5,10.9,10.4,10.9,8.6,9.8,8.6,8.6,4.6,2.9,5.2h11.5l6.3-10.9.6-5.8h15.5l6.9-1.2.6-19,10.4-17.3,7.5-15.5,2.9-8.1,5.8-5.2,8.6-5.2,1.2-5.8-9.2-2.9s-.6-1.7-.6-5.2-3.5-8.1-3.5-8.1c0,0-4-3.5-2.9-5.8,1.2-2.3,6.9-2.9,6.9-2.9l8.1,3.5h8.1l2.9-5.8,7.5-1.7,5.8-5.8s.6-11.5,0-13.8-4-13.2-4-13.2l2.3-8.6-3.5-3.5-4,1.2-10.9-14.4-20.7-29.4s-9.8-20.2-10.4-22.5-3.5-12.7-3.5-12.7l15.5-8.6,8.6-10.4-4-14.4-28.2-16.1-69.1-20.7s-26.5,32.8-41.5,30.5c-15-2.3-50.1-20.7-60.5-27.1s-21.9-13.8-37.4-12.7-37.4,12.1-38.6,19c-1.2,6.9-13.8,20.7-13.8,20.7l-4,5.2Z" />
  </g>
</svg>