<?xml version="1.0" encoding="UTF-8" standalone="no"?>
<!-- Extracted from kerala.html (Correct Map) -->
<svg id="kerala-map" viewBox="0 0 1429 2500" xmlns="http://www.w3.org/2000/svg">
                <!-- Kasaragod -->
                <g id="kasaragod" class="district">
                    <path
                        d="m 184.05836,351.57757 -1.48834,4.21697 3.96891,6.9456 3.4728,9.17811 c 0,0 3.4728,9.42617 3.96891,10.66645 0.49612,1.24029 4.46503,11.65869 4.96114,12.65092 0.49612,0.99222 3.72086,10.66645 3.72086,10.66645 l 1.98446,7.93783 4.46502,3.72085 c 0,0 2.48058,-0.74417 2.48058,-2.48057 0,-1.7364 -3.4728,-9.17811 -4.46503,-11.16257 -0.99223,-1.98445 -3.4728,-6.69754 -3.4728,-6.69754 l -3.4728,-9.67422 c 0,0 -2.48057,-6.44949 -2.72863,-7.68977 -0.24806,-1.24029 -1.48834,-5.2092 -1.48834,-5.2092 l -1.24029,-1.98446 3.22475,0.24806 -0.24806,-2.72863 -3.72086,0.74417 0,1.24029 c 0,0 -1.48834,-5.2092 -1.48834,-6.20143 0,-0.99223 -0.74417,-4.71309 -0.74417,-4.71309 l -0.49612,-2.23251 3.22475,0.74417 1.24028,-2.72863 -2.23251,-2.23251 -2.48057,1.48834 c 0,0 -1.24029,0.49612 -1.98446,-1.7364 -0.74417,-2.23251 -0.24806,-2.48057 -1.24029,-3.22474 -0.99222,-0.74417 -3.72085,0.24806 -3.72085,0.24806 z">
                    </path>
                    <path
                        d="m 225.50693,415.58595 -2.58651,-8.72951 -1.29326,-23.9253 -2.90984,-21.98542 2.58652,-7.43624 6.14298,-5.17304 c 0,0 8.72951,2.58652 10.02277,2.2632 1.29326,-0.32331 9.05282,-7.75956 9.05282,-7.75956 l -0.96995,-2.2632 10.02276,-1.29326 5.81967,-4.20309 0.96995,-11.31603 3.23315,-7.43624 12.28596,-1.29326 11.63934,1.29326 20.36884,0 10.02277,-8.08287 10.34607,-6.14299 13.90255,-2.58652 10.02276,0.32332 -2.58652,-11.96265 -5.17304,-8.08288 c 0,0 -4.20309,-2.90983 -3.55646,-4.52641 0.64663,-1.61657 5.17303,-12.28596 5.17303,-12.28596 l -8.7295,-9.05282 -13.57923,-9.37614 -0.64663,-18.75226 1.93989,-9.37613 6.78962,-3.87978 9.69945,3.23315 4.5264,-2.58652 0.32332,-14.54918 -7.11293,-10.66939 -8.08287,0.96995 -8.72951,0 -4.20309,6.14298 -0.64663,10.99271 -2.2632,4.20309 -8.40619,-4.84972 -3.23315,-11.96265 c 0,0 -4.52641,-4.2031 -5.81967,-4.52641 -1.29326,-0.32332 -11.63934,1.61657 -11.63934,1.61657 l -1.61657,-3.23315 0.64663,-8.40619 -1.61658,-3.23315 -6.78961,-1.93989 -4.52641,-4.5264 -3.55646,-14.22586 3.23314,-8.08288 8.08288,-1.29326 9.05282,-1.93988 3.23315,-3.55647 -1.61658,-5.81967 -5.49635,-2.90983 -2.58652,-0.32332 -7.43625,-8.7295 -6.78961,-2.58652 -4.20309,2.90983 -0.64663,9.37614 -6.78962,6.78961 -13.25591,4.84973 -8.08287,-3.23315 -4.52641,-3.23315 c 0,0 -2.26321,-0.96995 -1.61658,-2.58652 0.64663,-1.61658 4.84973,-6.14299 4.84973,-6.14299 l -3.55647,-10.66939 -7.75956,-2.58652 -9.05281,5.17304 -5.81967,3.55646 -5.49636,-5.49635 -2.90983,-6.78961 6.4663,-9.37614 2.2632,-7.112927 -2.58652,-3.87978 -11.96265,0 -11.96265,-5.17303 -4.84973,-5.49636 -4.52641,-3.23315 -5.81966,-0.32331 -0.64663,8.7295 -1.61658,4.20309 -5.49635,2.26321 -6.78962,2.90983 -6.78961,-1.93989 2.2632,-7.43624 5.17304,-1.93989 -0.96994,-7.43624 -6.4663,-8.08288 -9.37613,0 -7.43625,-3.23315 -6.78961,-5.17303 c 0,0 -2.58652,-4.2031 -2.58652,-5.49636 0,-1.29326 6.4663,-7.43624 6.4663,-7.43624 l 2.58652,-7.43625 0.32331,-7.43624 -2.2632,-8.08287 c 0,0 -5.81967,-1.93989 -7.11293,-1.29326 -1.29326,0.64663 -5.81967,3.23315 -5.81967,3.23315 l -2.90983,3.55646 -5.81967,-1.61657 c 0,0 -4.52641,-2.26321 -6.14299,-1.29326 -1.61657,0.96994 -6.789614,5.81967 -6.789614,5.81967 l -9.05281,2.58652 -10.02277,4.84972 -10.34608,3.23315 -12.93259,2.90983 -2.90984,0.32332 5.81967,15.51912 6.14299,6.46629 1.93988,5.49636 1.93989,10.66939 6.78962,12.28597 4.52641,10.669387 3.87978,10.34608 2.2632,8.40619 10.34608,0.96994 0.96994,1.93989 -5.81967,5.49636 -0.96994,4.84972 9.05282,20.69216 9.699444,15.51911 3.55647,13.57923 2.58652,7.75956 0.64663,6.4663 5.49635,3.55646 3.55647,-1.93989 1.29326,-2.90983 2.90983,1.29326 -2.58652,6.14298 -2.58652,2.26321 12.60928,25.54188 10.34608,17.78232 7.11293,7.75956 3.23315,11.96265 6.14298,11.63934 6.14299,11.96265 6.4663,21.6621 3.87977,15.1958 1.61658,6.78962 2.90983,2.2632 1.93989,-2.2632 -0.96994,-4.52641 0,-4.2031 3.55646,-2.2632 2.58652,-1.93989 4.84973,4.52641 0.96994,4.20309 -5.81967,-1.93989 -2.58652,-1.93989 -1.93989,3.23315 4.2031,1.93989 1.93989,0 -0.64663,2.26321 0,3.55646 7.75956,7.11293 3.87977,21.6621 8.40619,18.10564 10.6694,15.51911 z">
                    </path>

                </g>

                <!-- Kannur -->
                <g id="kannur" class="district">
                    <path
                        d="m 220.27469,405.1579 3.4728,10.17034 7.19366,4.71308 2.72863,3.96892 -11.41063,-1.98446 -8.18588,-2.97668 -6.44949,4.96114 4.96114,12.40285 c 0,0 6.44949,12.89897 7.44172,13.39508 0.99222,0.49612 14.63536,7.68977 14.63536,7.68977 l 2.97669,-7.19365 -0.74417,-10.4184 4.96114,-7.44171 4.21697,-2.72863 1.98446,6.44949 -4.21697,4.21697 -1.24029,8.43394 10.17034,9.92228 10.17034,8.682 10.66646,15.87565 8.93005,5.95337 -2.48057,-5.45725 -5.70531,-11.65869 -11.65868,-10.17034 c 0,0 -4.46503,-5.45725 -5.2092,-7.19365 -0.74417,-1.7364 1.48834,-7.68977 1.48834,-7.68977 l 9.42617,-1.24029 c 0,0 1.98445,-3.72085 3.22474,-3.96891 1.24029,-0.24806 4.21697,-0.99223 4.21697,-0.99223 l 3.72086,-4.71308 6.9456,0.49611 6.94559,2.97668 -5.95337,1.98446 -5.95337,4.96114 c 0,0 -2.48057,4.96114 -1.7364,5.95337 0.74418,0.99223 12.89897,3.22475 12.89897,3.22475 l 6.9456,0.74417 -0.99223,3.72085 -7.93782,-0.74417 -8.18589,2.23252 -11.65868,-10.17035 -5.45726,-1.98445 -4.21697,0.99223 0.74417,5.45725 9.92229,6.44949 6.9456,10.91451 3.96891,8.682 2.23251,0.99222 -0.49611,-5.20919 2.23251,-2.97669 2.72863,3.22474 2.23251,10.4184 3.96892,5.45726 c 0,0 8.93005,0.99222 10.4184,0.99222 1.48834,0 5.45725,0.99223 6.69754,0.49612 1.24028,-0.49612 7.44171,-8.93006 7.44171,-8.93006 l 7.68977,-7.93782 2.72863,-7.44172 -1.48835,-7.93782 2.48058,-5.2092 8.93005,-1.24029 -3.72086,3.22475 -2.23251,3.22474 1.48834,9.17811 c 0,0 -4.96114,8.93006 -6.20142,9.67423 -1.24029,0.74417 -7.93783,7.93782 -7.93783,7.93782 l 0,4.71309 4.71308,3.96891 4.71309,1.7364 3.22474,4.71309 0.24806,2.72862 -3.96892,0.74417 -8.93005,-6.69754 -4.96114,-2.23251 -7.68977,0.74417 -8.18589,0 -8.93005,-4.96114 -4.96114,0.24806 -0.99223,5.95337 13.8912,19.34845 5.95337,9.92228 3.72085,9.67423 4.71309,3.72086 12.15479,1.24028 5.2092,1.7364 19.34846,19.59651 c 0,0 3.96891,3.4728 4.21697,4.71308 0.24805,1.24029 -1.24029,7.68977 -1.24029,7.68977 l 0.74417,2.48058 4.21697,-3.4728 2.23252,-2.72863 1.7364,1.7364 -2.72863,3.22474 1.24028,6.69754 2.97669,4.46503 3.96891,-4.21697 4.21697,-6.69754 -0.99223,7.44171 1.48835,6.20143 14.13925,14.88342 8.93006,9.42617 6.69754,10.4184 4.21697,-2.23251 6.44948,-0.99223 4.96114,0.24805 c 0,0 6.20143,7.19366 7.19366,7.44172 0.99223,0.24805 4.21697,0 5.70531,-0.49612 1.48834,-0.49611 4.21697,-1.7364 4.21697,-1.7364 0,0 0.74417,3.72086 3.96892,1.24029 3.22474,-2.48057 7.19365,2.23251 2.72862,-5.2092 -4.46502,-7.44171 -7.19365,-6.69754 -3.96891,-10.17034 3.22474,-3.4728 2.23251,1.7364 5.95337,-3.22474 3.72086,-4.96115 1.24029,-2.23252 4.71308,-5.70532 3.4728,-3.4728 -1.48834,-5.2092 5.95337,-5.70531 7.44172,-0.49611 9.42617,-2.48057 12.89897,-4.71308 3.4728,-2.23252 3.4728,-1.48835 8.682,-2.97669 5.2092,-1.48834 12.1548,-9.67423 13.39508,-13.14702 1.24029,-3.4728 0.99223,-9.42617 4.71309,-8.682 3.72086,0.74417 4.46503,4.71308 11.65868,6.44948 7.19366,1.7364 12.40286,-0.24806 13.39508,-1.98446 0.99223,-1.73639 -4.96114,-5.95337 -3.47279,-8.43394 1.48834,-2.48057 7.19365,-0.74417 9.17811,-2.48057 1.98445,-1.7364 5.2092,-6.9456 1.7364,-10.91451 -3.4728,-3.96891 -3.4728,-6.20143 0,-8.682 3.4728,-2.48057 6.69754,-3.22474 10.66645,-3.4728 3.96892,-0.24805 8.18589,-0.49611 10.91451,0.24806 2.72863,0.74417 4.96115,0.49612 7.19366,-1.98446 2.23251,-2.48057 3.72086,-3.72085 7.68977,-2.72862 3.96891,0.99222 11.41063,2.48057 16.37177,4.96114 4.96114,2.48057 8.68199,3.4728 13.64314,0 4.96114,-3.4728 6.20142,-6.20143 5.45725,-9.92229 -0.74417,-3.72085 -4.46503,-5.20919 -3.72085,-8.68199 0.74417,-3.4728 4.21697,-6.44949 7.44171,-10.17034 3.22474,-3.72086 4.71308,-3.4728 2.97668,-8.43394 -1.7364,-4.96115 -6.44948,-8.682 -5.2092,-11.65869 1.24029,-2.97668 1.24029,-3.4728 1.24029,-3.4728 l -20.09262,-0.24805 -16.86789,-10.66646 -6.44948,-7.68977 -1.98446,-9.67423 c 0,0 -1.48834,-10.41839 -1.48834,-11.41062 0,-0.99223 -4.71308,-13.8912 -4.71308,-13.8912 0,0 -0.74417,-9.42617 -1.24029,-10.66645 -0.49611,-1.24029 -8.93005,-7.19366 -8.93005,-7.19366 l -18.35623,3.4728 -9.42617,1.98446 c 0,0 -4.46503,-2.72863 -4.96114,-4.21697 -0.49611,-1.48835 -2.97668,-3.96892 -2.97668,-3.96892 l -4.21698,-8.93005 -7.68976,-7.19366 -12.65092,4.21697 -4.21697,5.70532 -5.2092,-7.44172 -8.43394,-13.39508 -15.62759,-12.40285 -7.68977,1.24028 -2.72863,3.4728 -8.682,-6.9456 -18.60428,-24.30959 -0.99223,-6.44949 c 0,0 -2.97668,-3.4728 -3.4728,-4.46502 -0.49611,-0.99223 -3.4728,-8.18589 -3.96891,-9.17812 -0.49612,-0.99222 -11.41063,-13.39508 -11.41063,-13.39508 l -9.17811,-11.16257 -6.44948,-8.93005 -4.21697,-1.48834 -1.98446,6.20142 -11.41063,-0.49611 -10.66645,-6.20143 c 0,0 -38.94496,-2.97668 -50.10753,5.2092 -11.16257,8.18588 -70.69627,21.08485 -70.69627,21.08485 0,0 -15.6276,39.93719 -14.13926,43.65805 1.48835,3.72086 10.17034,39.19302 10.17034,39.19302 z">
                    </path>

                    <path
                        d="m 401.33387,631.10198 c 2.99503,-4.19304 3.59403,-4.19304 10.1831,-4.79205 6.58906,-0.599 7.18807,2.39603 11.98011,4.79205 4.79205,2.39602 4.19304,4.19304 8.98509,2.39602 4.79205,-1.79702 2.99503,0.59901 5.99006,0.59901 2.99503,0 4.79204,-1.79702 4.79204,-1.79702 0,0 6.58907,2.39602 1.19802,-3.59403 -5.39106,-5.99006 -8.38609,-5.39106 -7.78708,-8.38609 0.59901,-2.99502 -1.19801,-2.39602 1.79702,-2.99502 2.99503,-0.59901 3.59403,1.79701 6.58906,-2.99503 2.99503,-4.79205 2.99503,-4.19304 4.79205,-7.18807 1.79702,-2.99503 0.599,-3.59404 5.39105,-4.19304 4.79205,-0.59901 9.58409,-2.39603 13.77713,-4.19304 4.19304,-1.79702 4.79205,-2.99503 9.5841,-4.79205 4.79204,-1.79702 11.98011,-7.78707 13.17812,-11.98011 1.19801,-4.19305 -1.79702,-8.38609 1.19801,-8.98509 2.99503,-0.59901 3.59404,2.39602 11.38111,4.79204 7.78708,2.39603 14.37614,2.99503 14.37614,2.99503 0,0 -1.79702,-5.99005 -1.79702,-9.58409 0,-3.59403 8.38609,-2.99503 8.38609,-2.99503 0,0 5.39105,-2.99503 4.79204,-7.78707 -0.599,-4.79205 -4.79204,-5.99006 -4.79204,-8.98509 0,-2.99503 5.99005,-6.58906 13.77713,-6.58906 7.78707,0 12.57912,0.599 16.17315,-2.39603 3.59404,-2.99502 4.79205,-4.19304 10.1831,-3.59403 5.39105,0.59901 8.98509,2.99503 17.37117,4.79205 8.38608,1.79701 11.98012,6.58906 14.97514,-1.19802 2.99503,-7.78707 -2.99502,-12.57912 -1.79701,-16.77216 1.19801,-4.19304 5.39105,-9.58409 7.78707,-11.98011 2.39603,-2.39603 3.59404,-4.19304 1.79702,-10.1831 -1.79702,-5.99006 -7.18807,-11.98012 -3.59404,-11.98012 3.59404,0 3.59404,0 3.59404,0">
                    </path>
                </g>

                <!-- Wayanad -->
                <g id="wayanad" class="district">
                    <path
                        d="m 727.74019,764.8953 15.77368,-14.33971 11.47177,-9.32081 6.45287,-11.47176 3.58492,-6.45287 7.16986,-4.30191 12.18875,-0.71699 3.58493,2.86794 6.45287,-5.73588 -7.16986,-11.47177 -2.86794,-7.88684 5.73588,-7.88684 9.32081,0 10.75479,8.60383 c 0,0 7.88684,3.58493 10.75478,3.58493 2.86794,0 10.03779,-7.16986 10.03779,-7.16986 l 0,-2.15096 12.18875,2.15096 7.16986,-3.58493 2.86794,-14.3397 11.47177,-6.45287 11.47176,-2.15096 9.32081,-2.15096 5.73589,-13.62272 -5.0189,-7.16985 -15.05669,-6.45287 -5.73589,-10.0378 -1.43397,-6.45287 5.0189,0 7.16985,-6.45286 -0.71698,-7.16986 -2.86794,-2.86794 -0.71699,-7.16985 -4.30191,-5.0189 -7.88684,0.71698 -8.60383,8.60383 -12.90573,0.71698 -11.47177,-2.15095 -9.32081,-9.32081 -6.45287,-9.32081 -7.88684,-11.47177 -7.16985,-4.30191 -9.32081,3.58492 c 0,0 -2.15096,2.86795 -5.73589,1.43398 -3.58492,-1.43398 -9.32081,-5.0189 -9.32081,-5.0189 l -5.73588,-8.60383 -2.15096,-14.33971 -4.30191,-12.18875 -12.18875,-4.30191 -14.33971,7.16985 -9.32081,1.43398 -5.0189,2.86794 -3.58492,-8.60383 -0.71699,-12.90574 3.58493,-21.50956 -3.58493,-10.75478 -6.45287,-7.16985 -10.03779,1.43397 -10.75479,5.73588 -7.16985,4.30191 c 0,0 -5.0189,2.15096 -9.32081,4.30192 -4.30191,2.15095 -13.62272,5.01889 -13.62272,5.01889 l -20.07559,2.86795 -12.90574,-2.86795 -11.47177,-4.30191 -7.88684,-2.86794 -11.47176,5.0189 -51.62295,27.96243 -38.00023,10.75478 c 0,0 10.0378,52.33993 13.62272,56.64185 3.58493,4.30191 38.71721,81.01935 41.58516,85.32126 2.86794,4.30191 70.98155,68.11362 76.71744,69.54759 5.73588,1.43397 92.49111,19.3586 92.49111,19.3586 z">
                    </path>


                </g>

                <!-- Kozhikode -->
                <g id="kozhikode" class="district">
                    <path
                        d="m 511.2106,563.4224 15.77368,5.0189 9.32081,0.71698 7.16985,7.16986 -1.43397,7.88684 5.0189,7.88684 3.58493,12.18875 c 0,0 8.60382,2.15096 10.03779,5.0189 1.43397,2.86794 12.90574,10.75478 12.90574,10.75478 l 12.90574,5.73588 1.43397,12.90574 5.73588,11.47177 0.71699,9.32081 -2.86794,11.47176 11.47176,14.33971 6.45287,10.75478 10.0378,5.0189 5.73588,0 12.90574,15.77368 14.33971,9.32081 10.03779,0.71699 11.47177,-7.88684 11.47176,-0.71699 9.32081,1.43397 2.86795,8.60383 -5.73589,8.60382 1.43397,4.30191 8.60383,0.71699 8.60382,5.0189 9.32081,8.60382 4.30192,2.86794 10.75478,-3.58492 7.16985,-5.0189 0,8.60382 -12.18875,14.33971 -10.0378,5.0189 -7.16985,5.0189 5.0189,13.62272 -4.30191,15.05669 -7.16986,7.88684 -10.75478,6.45287 c 0,0 -2.15096,7.16986 -5.73588,7.88684 -3.58493,0.71699 -14.33971,1.43397 -14.33971,1.43397 0,0 -5.0189,-5.0189 -10.75478,-2.15095 -5.73589,2.86794 -6.45287,4.30191 -12.18875,9.32081 -5.73589,5.01889 -7.88684,7.88684 -10.0378,12.90573 -2.15096,5.0189 -7.16985,14.33971 -7.16985,14.33971 0,0 -3.58493,2.15096 -10.75479,0 -7.16985,-2.15095 -5.73588,0 -9.32081,2.86794 -3.58492,2.86795 -2.15095,5.73589 -10.75478,7.16986 -8.60382,1.43397 -8.60382,2.15095 -12.18875,4.30191 -3.58493,2.15096 -10.0378,4.30191 -10.0378,4.30191 l -5.73588,7.16986 0,6.45287 11.47177,5.73588 3.58493,7.88684 c 0,0 1.43397,6.45287 -4.30192,4.30191 -5.73588,-2.15095 -10.75478,-5.0189 -10.75478,-5.0189 l -5.0189,2.15096 -1.43397,7.88684 -2.86794,4.30191 c 0,0 -0.71698,4.30191 -7.16985,5.73589 -6.45287,1.43397 -10.75478,-4.30192 -10.75478,-4.30192 l 4.30191,-16.49066 5.0189,-7.16986 -4.30192,-0.71698 -5.01889,7.88684 -7.16986,-1.43397 c 0,0 -7.16985,-12.18875 -7.16985,-15.0567 0,-2.86794 -7.88684,-17.92463 -7.88684,-17.92463 l -6.45287,-25.09449 0.71698,-12.18875 -9.32081,-12.18876 -7.88684,-9.32081 c 0,0 -5.01889,-8.60382 -1.43397,-9.32081 3.58493,-0.71698 7.16986,-2.15095 7.16986,-2.15095 l -8.60383,-10.0378 -18.64162,-32.26434 -13.62272,-15.77368 -14.33971,0 -16.49066,-20.79258 -10.75478,-21.50956 0.71698,-7.16985 4.30191,1.43397 3.58493,-6.45287 9.32081,6.45287 4.30191,-5.0189 -7.16985,-5.0189 -6.45287,0 -5.73588,-3.58493 -2.15096,8.60383 -2.15096,-7.16986 -3.58492,-12.90573 -10.0378,-27.96243 -9.32081,-20.79258 38.00023,-50.90596 z">
                    </path>
                </g>

                <!-- Malappuram -->
                <g id="malappuram" class="district">

                    <path
                        d="m 562.83355,914.74525 c 0,0 -2.15096,8.60383 0.71698,10.0378 2.86795,1.43397 10.0378,7.88684 10.0378,7.88684 l 5.73588,5.73588 -1.43397,4.30191 -6.45287,-5.01889 -5.73588,0 -7.88684,6.45287 5.73588,16.49066 10.75479,32.26434 2.86794,13.62274 5.73588,26.5284 7.16985,22.2266 -0.71698,13.6227 5.73588,18.6416 0.71699,8.6039 -1.43397,10.0378 1.43397,12.9057 c 0,0 7.16985,6.4529 8.60382,3.5849 1.43397,-2.8679 -1.43397,-10.0378 -1.43397,-12.9057 0,-2.868 5.0189,13.6227 5.0189,13.6227 l 7.16985,3.5849 9.32081,-12.1887 0.71699,7.1698 -8.60383,8.6039 -9.32081,0 -0.71698,5.7358 3.58493,16.4907 4.30191,3.5849 3.68201,-3.8359 c 0,0 0.12853,2.0827 -0.74227,8.1783 -0.8708,6.0956 9.57878,34.8319 9.57878,34.8319 l 0,-10.4496 13.93278,6.9664 6.09559,-5.2248 6.36677,2.4221 2.6124,-9.6309 11.72967,9.7639 3.70216,-1.7129 1.71296,-11.4534 10.83025,-5.9053 10.06892,-12.2198 2.3648,-4.8206 -15.42678,-12.5954 -5.22479,-6.9664 -0.8708,-11.3204 c 0,0 1.7416,-4.3539 1.7416,-7.8371 0,-3.4832 -0.8708,-9.5788 -0.8708,-9.5788 l -0.8708,-7.8372 11.32038,-2.6124 15.18424,0.5996 9.79774,-13.633 c 0,0 2.88358,-6.995 7.23757,-7.8658 4.35399,-0.8708 17.3065,-14.0659 17.3065,-14.0659 l 3.51182,-2.2317 13.03335,6.5571 8.81746,-5.0631 12.19119,9.5788 12.19118,0.8708 c 0,0 4.35399,-2.6124 7.83718,-5.2248 3.4832,-2.6124 10.80161,-10.6921 10.80161,-10.6921 l 18.69101,7.7799 8.82252,-3.1834 1.08977,-9.3597 c 0,0 9.87354,1.7129 14.22754,1.7129 6.82827,0 1.55631,-4.354 1.55631,-6.9664 0,-2.6124 0.54236,-10.6399 0.54236,-10.6399 l 2.17447,-3.2693 -8.18921,-5.8766 c 0,0 -5.63409,-6.1478 1.3323,-8.7602 6.96639,-2.6124 9.90723,-6.4763 9.90723,-6.4763 0,0 3.3215,-8.35594 -0.16169,-11.83913 -3.4832,-3.4832 -9.13263,-9.19515 -14.37071,-8.40818 -5.60545,0.84217 -11.37259,-2.72188 -11.37259,-2.72188 l 12.35287,-11.26311 12.05307,-5.82441 8.35596,-12.54321 c 0,0 3.67857,-3.13117 8.03257,-3.13117 4.35399,0 30.19667,0.59962 30.19667,0.59962 7.55762,-4.65084 10.08634,-12.26177 12.84807,-20.43766 1.39949,-4.1431 -5.60461,-16.60025 -8.46039,-22.2601 -2.88358,-5.71493 -5.0631,-13.25231 -5.0631,-13.25231 l -3.48319,-7.34705 c 0,0 0.4712,-8.17631 3.48319,-11.32038 11.17722,-11.66736 5.94399,-14.43337 13.06198,-15.67438 12.04871,-2.10067 30.47795,-20.02837 32.21955,-24.38236 1.7416,-4.354 1.7416,-11.32038 -0.8708,-16.54518 -2.61239,-5.22479 -7.83719,-13.06198 -15.67437,-21.76996 -7.83719,-8.70799 -13.06198,-6.09559 -18.28678,-8.70799 -5.22479,-2.61239 -13.93277,-2.61239 -21.76996,-9.57878 -7.83719,-6.96639 -5.22479,-13.06198 -17.41598,-14.80358 -12.19118,-1.7416 -15.67437,0.8708 -20.02836,-2.6124 -4.354,-3.48319 -8.70799,-5.22479 -8.70799,-5.22479 0,0 -6.09559,6.96639 -9.57879,3.4832 -3.48319,-3.4832 -0.54235,-6.69521 -9.25033,-7.56601 -8.70799,-0.8708 -7.29484,0.59962 -9.03644,-3.75438 -1.74159,-4.35399 -3.37371,-4.49211 -6.85691,-3.62131 -3.48319,0.8708 -5.33427,-0.73268 -8.81746,-0.73268 -3.4832,0 -11.34902,3.21201 -9.60742,-2.01278 1.74159,-5.22479 2.3648,-16.54517 0.57099,-19.26705 -1.97572,-2.9979 0.32844,-10.06892 -4.02555,-11.81052 -4.354,-1.7416 -53.98952,-0.8708 -58.34351,10.44959 -4.35399,11.32038 -80.11348,82.72587 -94.04625,91.43385 -13.93278,8.70799 -70.53469,94.04626 -70.53469,94.04626 z">
                    </path>

                </g>

                <!-- Palakkad -->
                <g id="palakkad" class="district">
                    <path
                        d="m 890.08243,900.61514 9.78745,-5.18159 8.63599,1.15146 4.03013,0 4.03013,-6.33306 6.90879,-5.18159 6.33305,1.15147 9.21172,6.33305 12.09039,2.30293 14.39331,0.57574 12.09038,-4.03013 15.54478,-0.57573 9.78745,0 8.0603,-4.60586 5.1815,-3.4544 9.2118,-7.48452 8.636,-4.03013 6.9087,1.15147 0.5758,15.54477 -2.8787,7.48453 -5.1816,7.48452 -8.0602,6.90879 -5.1816,7.48452 -1.1515,8.06025 3.4544,0.57574 6.3331,-5.75733 8.636,0.57573 8.6359,4.60586 5.7574,6.33306 -1.1515,6.90879 2.3029,16.12051 -2.8786,7.48452 0,6.33306 4.6058,5.18159 8.636,2.87867 2.8787,2.87866 9.2117,-4.03013 3.4544,2.30293 -4.6059,8.63599 -10.9389,2.87866 -20.7264,-5.18159 -8.0602,0 -4.6059,4.60586 -5.1816,1.7272 -4.6058,17.27199 -4.0302,9.7874 -11.5146,12.0904 -1.7272,4.6059 8.0603,8.636 23.605,9.7874 25.3322,9.2117 39.7256,16.6963 8.0602,7.4845 c 0,0 0,12.0904 1.7272,14.969 1.7272,2.8787 9.7875,7.4846 9.7875,7.4846 0,0 12.0903,5.7573 14.3933,6.9088 2.3029,1.1514 6.9088,12.0903 6.9088,12.0903 l -3.4544,16.1205 -7.4846,27.6352 -1.1514,24.1808 -4.6059,7.4845 -14.969,-3.4544 -10.3632,-2.3029 -6.3331,10.3632 6.3331,9.7874 10.3632,6.3331 3.4544,12.6661 -8.636,14.3933 -1.1515,11.5146 -1.1514,14.3934 c 0,0 -2.8787,20.7263 -2.8787,23.0293 0,2.3029 -2.3029,17.2719 -2.3029,17.2719 0,0 7.4845,12.6661 8.636,14.9691 1.1514,2.3029 4.6058,13.8176 4.6058,13.8176 l 0,17.8477 -16.1205,12.0903 c 0,0 -55.846,9.2118 -61.0276,-8.0602 -5.1816,-17.272 -4.6059,-2.3029 -42.02851,-9.7875 -37.42262,-7.4845 -48.36153,-13.2418 -69.66364,-40.3012 -21.3021,-27.0595 -103.05611,-14.9691 -80.02681,-68.5122 23.0293,-53.5431 47.78579,-77.1482 22.45357,-80.0268 -25.33223,-2.8787 -104.78332,21.8778 -135.87287,8.0602 -31.08956,-13.8175 -65.05777,-31.6653 -62.75484,-49.513 2.30293,-17.8477 -16.69625,-60.4519 1.15146,-59.8761 17.84771,0.5757 58.14898,-10.3632 72.54229,-18.9992 14.39332,-8.636 97.87453,-4.0301 94.42013,-26.4837 -3.45439,-22.45357 -22.45356,-56.99752 -14.39331,-63.33058 8.06026,-6.33306 36.27115,-11.51465 54.11886,-25.33223 17.8477,-13.81758 17.8477,-32.81675 17.8477,-32.81675 z">
                    </path>
                    <path
                        d="m 697.24272,1152.836 c 2.39603,0 8.38608,-3.594 16.17316,-1.198 7.78707,2.396 8.38608,4.792 17.37117,5.3911 8.98508,0.599 11.98011,1.198 15.57415,2.396 3.59403,1.198 9.58409,4.193 7.78707,-1.797 -1.79702,-5.9901 -6.58906,-7.7871 -2.39602,-10.1831 4.19304,-2.3961 8.38608,-1.1981 8.98509,-5.3911 0.599,-4.193 -2.39603,-9.5841 0.599,-12.5791 2.99503,-2.995 5.99006,-5.9901 9.58409,-3.5941 3.59404,2.3961 8.38608,2.9951 8.38608,6.5891 0,3.594 3.59404,11.3811 3.59404,11.3811 0,0 2.39602,-2.995 8.98509,-2.396 6.58906,0.599 6.58906,0.599 13.77713,3.594 7.18807,2.9951 1.19801,3.5941 16.17315,2.3961 14.97515,-1.1981 13.17813,1.198 22.16322,-1.7971 8.98509,-2.995 5.99006,-10.1831 16.17315,-4.792 10.1831,5.391 5.99006,4.792 19.16819,3.594 13.17813,-1.198 14.97514,-8.3861 20.3662,-5.391 5.39105,2.995 7.18806,0.599 6.58906,8.9851 -0.59901,8.386 0,2.396 -2.39602,10.1831 -2.39603,7.787 -2.39603,4.193 -2.39603,8.985 0,4.7921 6.58907,3.5941 -1.19801,10.1831 -7.78707,6.5891 -6.58906,7.1881 -10.7821,13.7772 -4.19304,6.589 -4.79205,4.193 -5.99006,11.3811 -1.19801,7.1881 3.59403,8.3861 0,13.7771 -3.59404,5.3911 -8.38608,10.7821 -3.59404,17.3712 4.79205,6.5891 11.38111,10.1831 13.77714,20.9652 2.39602,10.7821 0,1.797 7.18807,10.7821 7.18807,8.9851 6.58906,14.3761 18.56918,20.9652 11.98011,6.5891 58.08675,35.9656 65.29163,42.5294 6.02277,5.4869 -10.1831,2.995 -2.39603,11.9801 7.78708,8.9851 17.37117,5.9901 17.37117,5.9901 0,0 0.59896,4.792 4.19306,2.396 3.594,-2.396 5.99,-4.193 5.99,-4.193 0,0 2.9951,0 7.7871,2.995 4.7921,2.995 8.3861,5.391 13.7771,4.792 5.3911,-0.599 8.3861,-3.594 11.3812,-4.792 2.995,-1.198 9.584,-1.198 14.9751,2.396 5.3911,3.5941 6.5891,3.5941 9.5841,3.5941 2.995,0 4.792,3.594 2.396,4.193 -2.396,0.599 -8.3861,1.797 -8.3861,4.792 0,2.9951 -5.391,3.5941 0.599,5.9901 5.9901,2.396 8.3861,6.5891 10.1831,0.599 1.7971,-5.9901 2.9951,-7.7871 6.5891,-5.3911 3.594,2.3961 1.198,4.1931 8.3861,2.3961 7.1881,-1.797 8.9851,-3.5941 14.9751,-3.5941 5.9901,0 5.9901,0.599 5.9901,0.599">
                    </path>
                </g>

                <!-- Thrissur -->
                <g id="thrissur" class="district">
                    <path
                        d="m 624.09402,1184.4513 17.84771,6.9087 3.45439,-4.6058 6.90879,3.4544 2.87866,-5.1816 1.72719,-5.7573 6.90879,6.333 5.75733,4.0301 2.87866,-6.333 0,-6.9088 10.36319,-5.1816 9.21172,-9.7874 4.60586,-8.0603 12.09038,-1.7272 13.24184,4.6059 c 0,0 9.78746,1.7272 13.24185,1.7272 3.4544,0 9.21172,1.7272 9.21172,1.7272 l 5.75733,2.3029 4.03012,-2.8787 -3.45439,-6.333 2.30293,-5.1816 6.90879,-5.1816 0,-12.6661 c 0,0 4.03013,-4.0302 7.48452,-4.0302 3.4544,0 8.06026,3.4544 8.06026,3.4544 l 6.33305,9.2118 1.15147,4.6058 5.75732,-1.7272 c 0,0 5.75733,0 8.63599,1.1515 2.87866,1.1514 13.81758,5.1816 13.81758,5.1816 0,0 7.48452,1.1514 10.36319,0.5757 2.87866,-0.5757 8.63598,-0.5757 11.51465,-0.5757 2.87866,0 13.81758,-2.8787 13.81758,-2.8787 l 4.60586,-5.1816 c 0,0 9.78745,2.8787 12.09038,3.4544 2.30293,0.5757 12.66611,2.3029 12.66611,2.3029 l 11.51465,-2.8786 8.06026,-2.8787 6.33305,0.5758 4.03013,5.7573 -1.15146,9.7874 -2.30293,6.9088 -1.15147,5.1816 1.7272,6.3331 -4.60586,5.1816 c 0,0 -3.4544,4.0301 -6.33306,7.4845 -2.87866,3.4544 -6.90879,8.636 -6.90879,8.636 0,0 -1.72719,6.9088 -1.15146,11.5146 0.57573,4.6059 2.87866,8.636 -0.57573,11.5147 -3.4544,2.8786 -9.78746,9.7874 -6.33306,13.2418 3.45439,3.4544 8.06025,8.0603 10.93891,12.0904 2.87867,4.0301 8.06026,17.8477 10.36319,18.9992 2.30293,1.1514 4.60586,6.333 7.48452,10.3632 2.87866,4.0301 9.21172,10.9389 9.21172,10.9389 0,0 17.27198,9.2117 20.72637,11.5146 3.4544,2.303 35.11968,22.4536 39.14981,25.3323 4.03013,2.8786 9.21172,7.4845 9.21172,7.4845 0,0 5.18159,4.0301 1.15147,5.7573 -4.03013,1.7272 -5.75733,4.6059 -3.4544,6.9088 2.30293,2.3029 10.36319,5.7573 13.81758,5.7573 3.4544,0 7.48449,4.6059 9.78749,2.8787 2.3029,-1.7272 4.0301,-4.6059 6.333,-4.0301 2.303,0.5757 5.7573,1.7272 8.0603,2.8786 2.3029,1.1515 20.7263,2.8787 20.7263,2.8787 0,0 4.6059,-2.8787 8.0603,-3.4544 3.4544,-0.5757 6.9088,1.1514 14.3933,4.6058 7.4845,3.4544 13.8176,5.1816 9.7875,6.9088 -4.0302,1.7272 -9.2118,0 -10.3632,3.4544 -1.1515,3.4544 -1.1515,6.9088 2.3029,8.0603 3.4544,1.1514 7.4845,1.1514 8.636,-2.3029 1.1515,-3.4544 4.0301,-5.7574 6.9088,-4.0302 2.8786,1.7272 4.6058,2.303 8.636,2.303 4.0301,0 10.9389,-3.4544 14.969,-3.4544 4.0301,0 3.4544,4.0301 3.4544,4.0301 l -2.3029,12.0904 -1.1515,8.636 2.8787,5.1816 12.0904,3.4543 2.3029,3.4544 -6.9088,1.7272 -14.969,-2.8786 -10.939,0 -8.6359,1.7272 -10.939,5.7573 -10.9389,-2.3029 -11.5146,1.7272 -11.5147,1.1514 -12.0904,-1.1514 -14.3933,-7.4846 -10.36316,-0.5757 -10.36318,0.5757 -9.78746,-2.3029 -10.36318,-1.1515 -4.60586,4.0302 -9.78745,2.8786 -8.63599,-1.1514 c 0,0 -9.78745,0 -12.09038,0 -2.30293,0 -12.09039,-2.303 -12.09039,-2.303 l -7.48452,-5.1815 -6.90879,-1.1515 -4.60586,0.5757 -5.18159,4.6059 -4.03013,5.1816 -12.09038,6.333 -8.63599,0.5758 -6.90879,4.0301 -2.87866,7.4845 -5.18159,4.6059 -9.21172,1.1514 -7.48452,4.0302 -4.60586,6.333 -6.90879,3.4544 -3.4544,7.4845 1.7272,5.1816 -5.75733,3.4544 -6.90879,-1.1514 -4.03012,2.3029 -6.33306,-2.3029 -8.06026,-4.6059 -4.60586,-3.4544 -6.90879,-4.6059 -2.87866,-2.3029 5.18159,-5.7573 -2.30293,-2.8787 -6.90879,1.7272 -9.21172,-8.636 -1.72719,-5.7573 6.90879,-2.3029 -8.63599,-2.8787 -10.36319,-4.6058 -5.75732,-2.8787 8.63599,12.6661 10.93891,13.8176 c 0,0 3.4544,4.6059 2.87867,9.2117 -0.57574,4.6059 -4.60586,6.9088 -4.60586,6.9088 0,0 -8.06026,0.5757 -12.66612,2.3029 -4.60586,1.7272 -14.96904,4.0302 -14.96904,4.0302 l -5.75733,-4.0302 4.60586,-7.4845 -7.48452,-18.4234 -5.75733,-35.6954 -10.93891,-29.3624 -4.60586,-18.4234 -16.69624,-33.3925 -9.78746,-17.8477 -5.18159,-10.3632 2.87866,-1.1515 10.93892,12.6661 4.03013,4.0302 0.57573,-4.6059 -5.18159,-8.636 -3.4544,-9.7874 11.51465,6.333 4.03013,6.9088 1.15147,9.2117 4.60585,0 -2.30292,-9.2117 8.63598,-5.7573 0.57573,-3.4544 -8.63598,-1.7272 -6.90879,-2.3029 -1.7272,-8.636 -3.45439,-1.7272 -6.33306,-5.1816 -3.4544,-0.5757 -1.72719,6.333 -5.75733,0 2.30293,7.4845 -4.60586,0.5758 -3.45439,-10.3632 6.33305,-4.0301 -8.06025,-3.4544 -16.69624,-25.3323 -15.54478,-16.6962 -6.90879,-14.3933 z M 793.08365,1449.3439 c 0,0 10.1831,9.5841 14.37614,8.9851 4.19304,-0.5991 5.99005,-3.5941 8.38608,-2.9951 2.39602,0.599 10.1831,-1.198 10.1831,-1.198 0,0 -2.39603,-4.792 0.599,-8.9851 2.99503,-4.193 7.18807,-4.193 8.38608,-7.188 1.19801,-2.9951 8.98509,-10.1831 8.98509,-10.1831 0,0 9.58409,-0.599 13.17813,-2.3961 3.59403,-1.797 4.19304,-11.9801 12.57912,-14.3761 8.38608,-2.396 8.98508,-1.198 15.57415,-4.193 6.58906,-2.9951 4.19304,-1.1981 10.1831,-7.1881 5.99005,-5.9901 8.38608,-11.9801 17.37116,-5.3911 8.98509,6.5891 13.77714,6.5891 26.95526,6.5891 13.17813,0 19.16819,1.198 22.16322,-1.198 2.99503,-2.396 4.19304,-3.594 12.57912,-3.594 8.38608,0 -1.19801,0.599 8.98508,2.396 10.1831,1.797 10.78211,1.198 15.57415,0.599 4.79207,-0.599 7.18807,-1.198 14.37617,2.995 7.188,4.1931 9.5841,5.9901 16.1731,5.9901 6.5891,0 8.3861,1.198 12.5792,1.198 4.193,0 -4.1931,0 7.787,-2.995 11.9801,-2.9951 11.3811,-1.7971 14.9752,0 3.594,1.797 15.5741,-4.7921 19.7672,-5.9901 4.193,-1.198 11.3811,-1.198 16.7721,-0.599 5.3911,0.599 20.9652,1.198 20.9652,1.198 l 0.599,-0.599">
                    </path>
                </g>

                <!-- Ernakulam -->
                <g id="ernakulam" class="district">
                    <path
                        d="m 825.60039,1626.0381 -0.57573,8.636 4.03013,8.0602 0,7.4845 1.15146,8.0603 c 0,0 2.30293,7.4845 3.4544,9.7874 1.15146,2.303 5.18159,16.1206 5.18159,20.7264 0,4.6059 1.7272,10.3632 1.7272,10.3632 0,0 5.18159,6.9088 7.48452,5.7573 2.30293,-1.1514 3.4544,-10.3632 3.4544,-12.6661 0,-2.3029 0,-6.333 -0.57574,-8.636 -0.57573,-2.3029 -3.45439,-6.9088 -3.45439,-10.9389 0,-4.0301 0,-8.636 0.57573,-12.0904 0.57573,-3.4544 -2.87866,-3.4544 -5.18159,-6.9088 -2.30293,-3.4544 -4.60586,-0.5757 -5.18159,-6.9088 -0.57574,-6.333 -0.57574,-8.0602 -0.57574,-10.3631 0,-2.303 7.48453,-1.1515 0.57574,-5.1816 -6.90879,-4.0302 -6.9088,-4.6059 -6.9088,-4.6059 z m 16.12051,8.636 0.57574,8.0602 6.33305,6.9088 c 0,0 2.87867,-1.7272 1.7272,-5.1816 -1.15146,-3.4544 -2.30293,-4.6058 -4.03013,-6.9088 -1.72719,-2.3029 -4.60586,-2.8786 -4.60586,-2.8786 z m -93.26866,-176.7499 c 0,0 -0.57573,10.3632 1.15146,13.2418 1.7272,2.8787 6.90879,4.6059 8.63599,9.7875 1.7272,5.1816 -2.30293,1.7272 -0.57573,7.4845 1.7272,5.7573 5.75732,8.0603 5.75732,10.3632 0,2.3029 -2.87866,1.7272 -2.87866,1.7272 0,0 -4.03013,-3.4544 -4.03013,1.1515 0,4.6058 4.60586,13.8175 5.1816,17.2719 0.57573,3.4544 -4.60586,2.303 -0.57574,5.7574 4.03013,3.4544 8.63599,4.6058 9.78746,8.0602 1.15146,3.4544 1.72719,3.4544 4.60586,11.5147 2.87866,8.0602 2.87866,13.8175 5.18159,16.1205 2.30293,2.3029 4.60586,3.4544 5.18159,0.5757 0.57573,-2.8787 1.7272,-2.8787 1.7272,-2.8787 0,0 1.7272,-4.0301 0.57573,-11.5146 -1.15146,-7.4845 1.15147,-13.2419 -1.15146,-17.8477 -2.30293,-4.6059 -1.7272,-6.9088 -7.48453,-14.3933 -5.75732,-7.4845 -6.90879,-3.4544 -9.21172,-13.2419 -2.30293,-9.7874 -3.45439,-12.6661 -4.60586,-19.5749 -1.15146,-6.9088 1.7272,-5.7573 -3.45439,-12.0904 -5.18159,-6.333 -13.81758,-11.5146 -13.81758,-11.5146 z m 74.84522,137.0243 0,4.6059 -2.87866,3.4544 c 0,0 -5.75732,0.5757 -4.03013,4.6058 1.7272,4.0302 3.4544,8.636 8.06026,8.636 4.60586,0 8.63599,5.1816 9.78745,0.5758 1.15147,-4.6059 2.30293,-5.7574 -0.57573,-9.2118 -2.87866,-3.4544 -2.30293,-2.3029 -4.60586,-5.7573 -2.30293,-3.4544 -2.30293,-7.4845 -2.30293,-7.4845 z m -29.36235,-59.3004 2.30293,7.4845 c 0,0 1.15146,5.1816 1.15146,7.4845 0,2.303 -2.30293,5.7573 -2.30293,5.7573 0,0 -2.87866,-3.4543 -3.45439,-6.333 -0.57574,-2.8787 1.72719,-4.6059 1.72719,-4.6059 l -2.87866,-5.7573 z m -16.69625,38.5741 -0.57573,8.0602 6.33306,13.8176 5.75732,15.5448 c 0,0 2.87867,8.0602 4.03013,12.0903 1.15147,4.0302 2.87866,17.272 2.87866,17.272 l 1.7272,15.5448 5.75733,1.7272 c 0,0 3.45439,-1.7272 2.87866,-4.0301 -0.57573,-2.303 -3.4544,-5.7574 -3.4544,-5.7574 l -0.57573,-4.6058 0.57573,-5.7573 5.75733,-7.4846 0.57573,-10.9389 -4.03013,-7.4845 5.1816,-4.0301 c 0,0 1.15146,-2.303 0.57573,-4.6059 -0.57573,-2.3029 -6.90879,-7.4845 -6.90879,-7.4845 l -6.33306,-5.1816 -5.75732,-3.4544 -5.1816,-2.3029 2.87867,-4.6059 -0.57574,-5.1816 -6.90879,-2.3029 z m 18.42344,6.333 6.33306,8.0603 4.03013,-3.4544 -1.7272,-5.1816 -4.03013,-4.6059 z m 10.93892,12.6661 4.03013,-0.5757 -0.57573,-2.8787 -6.33306,-2.3029 z m -8.12652,65.1756 c 3.59403,-2.995 10.1831,1.198 7.18807,-4.7921 -2.99503,-5.99 -5.39105,-2.995 -4.19304,-7.188 1.19801,-4.1931 4.19304,-1.797 4.19304,-1.797 m 225.7534,-262.0761 4.0301,13.8176 -2.3029,11.5146 -9.2117,12.6662 -8.0603,6.9087 -4.0301,8.0603 -4.6059,13.8176 -2.30289,4.0301 4.60589,5.7573 12.6661,5.1816 10.9389,9.7875 9.7875,7.4845 10.9389,6.9088 8.0602,5.1816 11.5147,8.636 6.9088,6.333 -1.1515,5.1816 -10.3632,6.3331 -5.1816,4.0301 -6.9088,4.6059 -10.3632,6.333 -12.0903,5.1816 -8.0603,6.3331 1.1515,9.7874 0.5757,6.9088 -1.7272,10.3632 -10.3632,4.6059 -9.21169,-1.1515 -2.30293,5.7573 2.87862,6.3331 2.303,9.2117 0,11.5146 -3.45443,5.7574 -14.96904,5.1816 -11.51465,2.3029 -4.60586,13.8176 -6.90879,4.6058 -11.51465,0 -6.90879,-5.1816 -6.33306,-7.4845 4.03013,-6.333 -2.30293,-5.1816 -8.06026,-2.303 -8.06025,1.1515 -8.06026,0.5757 -9.78745,4.6059 -8.06025,8.0603 -9.21172,6.333 -14.39331,3.4544 -10.36319,-3.4544 -6.33306,-13.2418 -7.48452,-20.7264 c 0,0 -6.90879,-10.3632 -9.78745,-12.0904 -2.87866,-1.7272 -6.90879,-8.0602 -6.90879,-8.0602 0,0 -2.87866,-9.7875 -4.60586,-12.0904 -1.7272,-2.303 -7.48452,-6.3331 -7.48452,-6.3331 l 2.87866,9.7875 -5.75733,4.0301 -7.48452,-8.636 -5.75732,-8.636 -1.7272,-8.636 1.7272,-8.0602 1.15146,-8.636 0,-8.0603 c 0,0 5.75733,0 6.90879,-2.8786 1.15147,-2.8787 0,-5.7574 0,-5.7574 l -13.81758,-2.3029 -7.48452,-2.8786 2.30293,-10.3632 0.57573,-13.2419 -5.18159,-5.7573 -5.18159,-3.4544 1.15146,8.0603 2.87866,6.333 -1.15146,4.6059 -7.48452,-6.3331 -3.4544,-8.0602 0,-7.4846 -4.60586,-11.5146 -12.66611,-23.0293 7.48452,-1.7272 c 0,0 15.54478,2.8787 18.42344,3.4544 2.87866,0.5757 14.39331,8.636 16.69624,9.2117 2.30293,0.5757 22.45357,7.4845 22.45357,7.4845 l 11.51465,0.5758 4.03013,-4.0302 c 0,0 10.36318,8.636 12.66611,9.2118 2.30293,0.5757 1.15147,-4.0302 1.15147,-4.0302 l -4.03013,-6.333 -5.75733,-4.0302 -4.60586,0 -5.75732,2.8787 -10.36319,0 -6.33305,-4.0301 -8.63599,-4.0301 -12.09038,-4.0302 -10.36319,-4.0301 -6.90879,-4.0301 2.87866,-2.303 9.21172,1.7272 4.03013,0.5758 c 0,0 16.69624,-4.0302 21.87784,-8.0603 5.18159,-4.0301 10.36318,-10.3632 14.96904,-13.8176 4.60586,-3.4544 14.39331,-10.9389 14.39331,-10.9389 0,0 14.96905,-12.6661 20.15064,-14.969 5.18159,-2.303 18.99917,-10.3632 21.87783,-11.5147 2.87867,-1.1514 15.54478,-6.333 26.4837,-4.0301 10.93892,2.3029 21.87783,5.7573 26.48369,5.1816 4.60586,-0.5757 31.66529,-2.8787 31.66529,-2.8787 l 16.69624,0.5758 z m 3.0668,11.6917 c 0,0 1.797,7.787 -2.995,14.3761 -4.7921,6.5891 -2.9951,4.7921 -9.5841,12.5791 -6.5891,7.7871 -9.5841,7.7871 -13.1781,19.1682 -3.59408,11.3811 -5.9901,15.5742 -3.59408,17.3712 2.39598,1.797 9.58408,1.797 15.57418,5.99 5.99,4.1931 6.589,4.7921 13.1781,10.7821 6.5891,5.9901 5.9901,4.7921 11.9801,8.9851 5.9901,4.1931 0,-1.198 12.5791,7.7871 12.5792,8.9851 13.1782,8.9851 16.7722,13.1781 3.594,4.1931 5.9901,5.9901 0.599,10.1831 -5.391,4.1931 -13.1781,10.7821 -17.3712,12.5792 -4.193,1.797 -2.995,4.792 -9.5841,7.188 -6.589,2.396 -5.391,1.797 -13.1781,4.7921 -7.7871,2.995 -10.7821,5.99 -10.1831,11.9801 0.599,5.99 4.1931,12.5791 1.198,17.9702 -2.995,5.391 2.3961,7.188 -7.188,8.386 -9.5841,1.198 -15.57419,-2.396 -16.7722,1.198 -1.19801,3.5941 4.19304,5.9901 5.3911,14.3762 1.198,8.3861 1.797,15.5741 0.599,19.7672 -1.1981,4.193 -7.18811,3.594 -12.57916,5.99 -5.39106,2.3961 -16.77217,2.3961 -19.16819,6.5891 -2.39602,4.193 0.59901,12.5791 -4.19304,14.9751 -4.79205,2.3961 -8.38608,4.7921 -14.97514,1.1981 -6.58907,-3.5941 -6.58907,-4.1931 -10.78211,-7.7871 -4.19304,-3.5941 -7.18807,-2.396 -4.19304,-7.1881 2.99503,-4.792 5.99006,-5.99 2.99503,-8.9851 -2.99503,-2.995 -4.19304,-4.792 -10.1831,-2.995 -5.99005,1.797 -5.39105,2.396 -10.7821,1.797 -5.39105,-0.599 -8.38608,1.198 -12.57912,4.1931 -4.19304,2.995 -4.19304,1.797 -7.78708,6.589 -3.59403,4.7921 -16.77216,13.7772 -22.16321,11.3811 -5.39105,-2.396 -14.37614,-2.396 -14.37614,-2.396 l -2.99503,-4.792">
                    </path>
                </g>

                <!-- Idukki -->
                <g id="idukki" class="district">


                    <path
                        d="m 1167.5855,1863.2399 13.8176,9.2117 10.3632,1.1514 c 0,0 6.333,0.5758 8.6359,1.1515 2.303,0.5757 7.4846,2.3029 7.4846,2.3029 l 9.2117,-1.1514 9.7874,0 7.4846,-1.1515 4.6058,-6.333 8.636,-5.1816 8.0603,-4.6059 5.7573,-2.8787 5.1816,-6.9087 8.636,0.5757 6.9088,0.5757 c 0,0 2.8786,-1.1514 6.333,-1.1514 3.4544,0 6.9088,3.4543 6.9088,3.4543 l 4.0301,4.0302 5.7574,-1.7272 8.6359,-5.7573 9.2118,-2.8787 12.6661,4.6058 8.0602,3.4544 14.3933,2.303 9.2118,-3.4544 9.2117,-0.5758 12.0904,6.3331 6.333,-6.3331 17.272,-16.6962 c 0,0 7.4845,-8.0603 5.7573,-12.0904 -1.7272,-4.0301 -5.7573,-9.7874 -8.0602,-10.9389 -2.303,-1.1515 -9.2117,-6.9088 -9.2117,-6.9088 l -8.0603,-20.7264 0.5757,-13.8175 -10.9389,-5.1816 -12.6661,3.4544 c 0,0 -8.0603,4.6058 -9.2117,6.9088 -1.1515,2.3029 -6.3331,5.1816 -6.3331,5.1816 l -4.6058,4.0301 -10.939,-1.1515 -16.1205,-5.1816 -13.2418,-8.0602 -12.6661,-6.9088 0,-8.636 c 0,0 11.5146,-28.2109 12.6661,-31.0896 1.1515,-2.8786 2.8786,-12.6661 4.0301,-14.969 1.1515,-2.3029 5.1816,-10.3632 5.1816,-10.3632 l 2.8787,-12.6661 4.0301,-10.3632 4.6059,-12.6661 -2.8787,-10.9389 c 0,0 -5.1816,-3.4544 -6.3331,-6.3331 -1.1514,-2.8786 -2.3029,-18.4234 -2.3029,-18.4234 0,0 -0.5757,-8.636 0.5757,-12.0904 1.1515,-3.4544 3.4544,-9.2117 3.4544,-9.2117 l 8.636,-14.3933 7.4845,-12.6662 4.6059,-10.3631 -1.1515,-11.5147 c 0,0 -5.1816,-6.333 -6.333,-8.636 -1.1515,-2.3029 -5.1816,-14.3933 -5.1816,-14.3933 0,0 1.1515,-5.1816 -1.7272,-9.2117 -2.8787,-4.0301 -14.3933,-16.1205 -14.3933,-16.1205 0,0 -6.3331,-6.9088 -6.3331,-9.2117 0,-2.303 -2.3029,-5.1816 -0.5757,-7.4846 1.7272,-2.3029 9.7874,-10.9389 12.0904,-11.5146 2.3029,-0.5757 10.3632,-1.7272 10.3632,-1.7272 l 8.6359,-4.0301 4.6059,-8.0603 -0.5757,-13.8176 2.8786,-12.0904 c 0,0 5.1816,-12.0903 3.4544,-14.3933 -1.7272,-2.3029 -5.1816,-7.4845 -5.1816,-7.4845 l -8.0602,-1.1515 c 0,0 -4.6059,-2.8786 -4.6059,-4.6058 0,-1.7272 0,-6.9088 0,-6.9088 l -5.1816,-13.2418 -6.9088,-12.0904 -3.4544,-14.9691 -7.4845,-7.4845 -10.9389,-4.6059 -9.2117,-1.1514 c 0,0 -6.3331,-1.1515 -9.7875,3.4544 -3.4544,4.6058 -12.0904,8.0602 -13.2418,10.9389 -1.1515,2.8787 -1.7272,6.333 -7.4845,7.4845 -5.7574,1.1515 -6.9088,1.7272 -12.0904,3.4544 -5.1816,1.7272 -9.2117,1.7272 -13.2419,4.6059 -4.0301,2.8786 -8.0602,9.2117 -8.636,11.5146 -0.5757,2.3029 -1.1514,9.7875 -3.4543,12.6661 -2.303,2.8787 -5.1816,2.8787 -8.0603,5.1816 -2.8787,2.303 -5.7573,6.9088 -8.636,8.636 -2.8787,1.7272 -10.3632,3.4544 -10.3632,3.4544 0,0 -2.8786,6.3331 -7.4845,5.1816 -4.6059,-1.1515 -11.5146,-7.4845 -11.5146,-7.4845 0,0 -6.9088,-7.4845 -11.5147,-4.6059 -4.6059,2.8787 -7.4845,10.3632 -9.7875,10.3632 -2.3029,0 -4.0301,-5.1816 -9.2117,-9.2117 -5.1816,-4.0301 -7.4845,-4.6059 -11.5146,-9.2117 -4.0301,-4.6059 1.7272,-6.3331 -10.3632,-8.636 -12.0904,-2.303 -21.8778,-4.6059 -29.9381,-5.1816 -8.0603,-0.5758 -67.9364,9.2117 -71.3908,10.9389 -3.4544,1.7272 -22.45359,24.7565 -27.05945,37.9983 -4.60586,13.2419 -5.18159,35.6955 6.33306,47.2101 11.51469,11.5147 24.75649,27.0594 16.12049,37.9984 -8.636,10.9389 -31.66527,25.3322 -35.6954,40.3012 -4.03013,14.9691 5.75733,28.7867 7.48452,42.0285 1.7272,13.2418 -8.06025,48.9373 17.84768,61.0276 25.908,12.0904 127.8126,81.7541 141.0545,100.1775 13.2418,18.4234 21.3021,89.8143 21.3021,89.8143 z">
                    </path>
                </g>

                <!-- Kottayam -->
                <g id="kottayam" class="district">

                    <path
                        d="m 985.07829,1621.4322 20.15061,12.0904 10.3632,5.1816 6.3331,2.8787 8.0602,8.6359 5.7574,4.0302 7.4845,1.7272 12.0904,1.7272 c 0,0 5.7573,-0.5758 10.9389,-0.5758 5.1816,0 7.4845,-1.1514 9.7874,-1.1514 2.303,0 12.0904,7.4845 12.0904,7.4845 l 6.3331,9.7874 9.2117,6.3331 8.0602,5.1816 8.636,-1.1515 5.1816,0.5758 6.9088,10.9389 2.3029,10.3632 6.9088,9.7874 6.3331,10.9389 5.1816,16.1205 4.6058,8.0603 2.303,10.9389 0.5757,6.9088 4.6059,9.2117 5.7573,10.3632 0,6.9088 6.333,7.4845 4.0302,10.9389 -3.4544,13.2419 -6.3331,8.0602 -1.1514,13.2419 4.0301,14.3933 6.9088,6.9088 c 0,0 5.7573,2.8787 2.3029,2.8787 -3.4544,0 -17.8477,-4.6059 -23.0293,-6.3331 -5.1816,-1.7272 -17.272,-6.3331 -17.272,-6.3331 0,0 -9.7874,-3.4544 -12.0904,-4.0301 -2.3029,-0.5757 -7.4845,-3.4544 -10.3631,-2.3029 -2.8787,1.1514 -4.6059,3.4544 -9.2118,2.8786 -4.6058,-0.5757 -8.0602,-1.1514 -12.0903,-2.3029 -4.0302,-1.1515 -9.7875,-1.1515 -9.7875,-1.1515 0,0 -5.1816,2.8787 -8.0602,4.0302 -2.8787,1.1514 -4.0302,6.333 -8.636,4.6058 -4.6059,-1.7272 -9.2118,-4.0301 -9.2118,-4.0301 0,0 -6.9087,-6.3331 -4.6058,-6.3331 2.3029,0 10.3632,-2.8786 10.3632,-2.8786 l 2.3029,-5.7573 -10.9389,-1.1515 c 0,0 -4.6059,2.8787 -8.636,3.4544 -4.0301,0.5757 -6.9088,1.7272 -9.2117,0.5757 -2.303,-1.1514 -5.1816,-1.7272 -9.7875,-4.0301 -4.6058,-2.3029 -8.0602,-2.3029 -10.9389,-3.4544 -2.8787,-1.1515 -8.636,-3.4544 -11.5146,-1.7272 -2.8787,1.7272 -5.1816,2.8787 -8.636,5.1816 -3.45443,2.3029 -3.45443,6.3331 -8.06029,7.4845 -4.60586,1.1515 -8.06025,3.4544 -9.21172,5.7573 -1.15146,2.303 -2.30293,12.6662 -2.30293,12.6662 0,0 -3.45439,6.333 -6.90879,7.4845 -3.45439,1.1514 -13.24184,-1.7272 -18.42344,-1.7272 -5.18159,0 -2.30293,-3.4544 -11.51465,-4.0301 -9.21172,-0.5758 -10.93891,1.7272 -12.66611,-1.7272 -1.7272,-3.4544 -6.33306,-6.9088 -4.60586,-10.939 1.7272,-4.0301 7.48452,-5.7573 4.60586,-11.5146 -2.87866,-5.7573 -1.7272,-7.4845 -6.33306,-10.9389 -4.60586,-3.4544 -6.33306,-6.9088 -12.09038,-8.636 -5.75733,-1.7272 -9.78745,-3.4544 -9.78745,-3.4544 l 9.21172,-1.1515 4.60586,-6.333 1.15146,-5.7574 c 0,0 -5.18159,-8.6359 -6.90879,-10.9389 -1.7272,-2.3029 -2.87866,-6.333 -6.90879,-8.0602 -4.03013,-1.7272 -8.63599,0.5757 -8.63599,0.5757 0,0 -1.15146,6.3331 -7.48452,5.7573 -6.33305,-0.5757 -9.78745,-5.7573 -9.78745,-5.7573 0,0 -0.57573,-3.4544 -0.57573,-7.4845 0,-4.0301 1.7272,-6.9088 2.30293,-9.7875 0.57573,-2.8786 1.7272,-6.9088 1.7272,-10.3632 0,-3.4543 -1.7272,-9.2117 -2.87867,-11.5146 -1.15146,-2.3029 -4.60586,-10.9389 -4.60586,-10.9389 0,0 -2.30293,-9.2117 -2.30293,-11.5147 0,-2.3029 -5.18159,-10.9389 -5.18159,-10.9389 l -6.90879,-4.6058 3.4544,-9.7875 c 0,0 -1.15147,-8.636 -1.7272,-10.9389 -0.57573,-2.3029 -3.4544,-9.2117 -3.4544,-9.2117 0,0 -5.18159,-6.3331 -1.15146,-7.4846 4.03013,-1.1514 4.60586,-4.6058 4.60586,-4.6058 l -8.63599,-1.7272 0,-8.636 c 0,0 2.30293,-6.9088 3.4544,-9.2117 1.15146,-2.303 6.33305,-8.636 6.33305,-8.636 0,0 36.27115,-16.1205 40.87701,-18.4235 4.60586,-2.3029 55.27032,-2.8786 57.57325,-2.3029 2.30293,0.5757 21.87783,0 21.87783,0 z">
                    </path>
                </g>

                <!-- Alappuzha -->
                <g id="alappuzha" class="district">
                    <path
                        d="m 963.20046,1860.3612 0,15.5448 -2.87866,3.4544 -3.4544,4.6058 -2.87866,2.8787 2.87866,9.7874 9.21172,10.939 6.33306,4.0301 4.60586,5.1816 5.18159,0.5757 7.48452,-1.1514 5.75733,1.1514 8.06022,3.4544 7.4846,1.7272 8.6359,-0.5757 8.0603,-2.303 4.6059,1.1515 0,3.4544 -0.5758,2.8787 1.1515,5.1816 -1.1515,7.4845 -5.7573,8.0602 -5.7573,5.7574 -2.303,5.7573 0,7.4845 2.8787,6.9088 4.0301,6.9088 1.1515,6.9088 2.3029,6.9088 2.303,8.0602 -4.6059,8.636 -10.3632,2.8787 -4.0301,2.3029 -4.6059,6.9088 -9.21169,2.3029 -9.21172,0.5758 -8.63599,6.333 -13.81758,4.6059 -8.63599,-3.4544 -5.75732,-8.636 -7.48452,-2.8787 -9.78746,1.1515 -6.90879,2.8787 -8.63598,-2.8787 -15.54478,-13.2419 3.45439,-4.0301 -4.60586,-11.5146 -2.30293,-6.9088 0,-9.7875 0.57574,-6.9088 -3.4544,-4.6058 -4.03013,-9.2117 -6.33305,-3.4544 -4.60586,6.333 5.18159,10.3632 5.18159,8.636 4.03013,10.3632 4.03013,10.9389 -2.87867,4.6059 -10.36318,-10.3632 -3.45439,-14.3933 -4.60586,-10.939 -6.33306,-12.6661 -15.54478,-29.3623 -13.81758,-33.9682 -13.24185,-47.7858 -6.33305,-13.2419 -1.15147,-11.5146 -8.63599,-54.6946 0,-20.7264 -2.30293,-10.3632 -2.30293,-14.969 -8.06025,-51.2402 -1.7272,-9.7875 3.4544,-3.4544 2.87866,-2.8786 -4.60586,-4.0302 1.7272,-4.0301 4.60586,-1.1514 1.72719,-6.3331 3.4544,-1.1515 0.57573,-4.6058 0,-6.3331 2.87866,-3.4544 3.4544,3.4544 0,5.1816 0,5.7573 5.75732,10.9389 0,5.1816 0.57574,8.636 3.45439,10.9389 5.18159,18.9992 1.15147,11.5147 0,6.9088 -3.4544,5.1815 8.06026,-1.7271 4.03013,-5.7574 2.87866,3.4544 -0.57573,7.4845 5.75732,6.3331 9.21172,4.6059 c 0,0 5.18159,4.6058 2.30293,6.9088 -2.87866,2.3029 -5.18159,5.7573 -5.18159,5.7573 0,0 2.30293,10.9389 0.57573,14.969 -1.7272,4.0301 -5.75732,12.0904 -5.75732,12.0904 0,0 -4.03013,6.3331 -4.60586,9.2117 -0.57574,2.8787 -4.60586,18.4235 -5.1816,21.3021 -0.57573,2.8787 6.33306,13.2419 6.33306,13.2419 l 16.12051,8.0602 2.30293,1.1515 4.60586,-0.5757 c 0,0 -0.57573,-2.303 1.7272,-3.4544 2.30293,-1.1515 2.87866,-3.4544 2.87866,-3.4544 0,0 6.33306,9.2117 8.63599,10.9389 2.30293,1.7272 4.60586,0 4.60586,0 l 2.30293,-6.3331 10.93891,2.8787 16.12051,5.1816 z">
                    </path>
                </g>

                <!-- Pathanamthitta -->
                <g id="pathanamthitta" class="district">
                    <path
                        d="m 1338.0023,2026.1722 -13.8176,2.8786 -12.6661,3.4544 -17.272,3.4544 -18.9991,0.5757 -8.636,-1.1514 c 0,0 -1.7272,2.8786 -4.6059,2.8786 -2.8786,0 -13.8176,-0.5757 -13.8176,-0.5757 0,0 -8.0602,-1.7272 -10.3631,-1.7272 -2.303,0 -12.6662,-0.5757 -12.6662,-0.5757 l -9.7874,-2.303 -10.3632,-7.4845 c 0,0 -5.1816,-2.3029 -7.4845,-2.3029 -2.3029,0 -9.7875,5.1816 -9.7875,5.1816 0,0 -12.6661,-4.0301 -15.5447,-5.1816 -2.8787,-1.1515 -9.7875,-2.8787 -9.7875,-2.8787 l -11.5146,3.4544 c 0,0 -12.0904,-3.4544 -16.1206,-5.1816 -4.0301,-1.7272 -5.7573,-1.7272 -5.7573,-1.7272 0,0 -9.2117,5.7574 -14.3933,6.9088 -5.1816,1.1515 -4.6059,5.7574 -11.5146,4.6059 -6.9088,-1.1515 -20.1507,-3.4544 -25.908,-4.0301 -5.7573,-0.5758 -6.9088,0 -10.3632,0.5757 -3.4544,0.5757 -9.7874,0.5757 -12.0904,-0.5757 -2.3029,-1.1515 -5.1816,-2.8787 -8.0602,-4.0302 -2.8787,-1.1514 -7.4846,-4.6058 -10.3632,-5.1816 -2.8787,-0.5757 -8.0603,1.1515 -10.3632,-1.1514 -2.3029,-2.303 -15.5448,-12.6661 -15.5448,-12.6661 0,0 8.0603,-29.3624 -10.3632,-44.3314 -18.4234,-14.9691 -20.1506,-13.2419 -37.42257,-36.8469 -17.27198,-23.6051 -18.42344,-40.3013 -13.81758,-44.3314 4.60586,-4.0301 17.8477,-2.8787 22.45356,-16.1205 4.60586,-13.2419 16.69625,-33.3925 24.7565,-32.2411 8.06029,1.1515 38.57409,3.4544 52.39169,5.1816 13.8175,1.7272 33.3925,-4.6058 36.8468,1.1515 3.4544,5.7573 11.5147,10.9389 40.8771,13.2419 29.3623,2.3029 55.2703,18.9991 78.2996,7.4845 23.0293,-11.5147 40.877,-21.3021 69.6636,-20.1507 28.7866,1.1515 43.7557,2.8787 62.1791,-0.5757 18.4235,-3.4544 52.9674,8.0603 52.9674,10.9389 0,2.8787 -0.5757,12.6661 -0.5757,12.6661 l -2.8787,9.2118 -4.0301,24.1807 -3.4544,9.2117 -10.3632,11.5147 -9.2117,16.1205 -2.3029,23.605 c 0,0 1.1514,6.9088 0,9.7875 -1.1515,2.8787 -6.3331,13.8176 -7.4846,17.272 -1.1514,3.4544 -2.8786,11.5146 -4.0301,14.969 -1.1515,3.4544 -1.1515,14.3933 -1.1515,16.6962 0,2.303 -5.7573,16.1206 -5.7573,16.1206 z">
                    </path>
                </g>

                <!-- Kollam -->
                <g id="kollam" class="district">
                    <path
                        d="m 929.80797,2016.3847 -1.15146,10.9389 -6.90879,0 -5.18159,2.303 13.24184,19.5749 5.1816,13.8175 2.87866,7.4846 4.60586,0 5.75732,5.7573 -1.15146,5.7573 -6.90879,-2.8787 -4.60586,-3.4543 -4.60586,-10.939 -3.4544,-8.0602 -4.03012,-9.7875 -5.1816,-9.2117 -3.45439,-4.0301 -2.30293,-6.3331 -3.4544,-5.1816 -5.75732,1.1515 9.21172,12.6661 4.03013,6.3331 -1.15147,8.636 7.48452,6.9087 6.33306,14.9691 5.18159,15.5448 1.7272,17.8477 4.60586,26.4837 5.18159,5.7573 2.87867,3.4544 4.60586,-3.4544 -3.4544,-10.3632 5.18159,-17.8477 5.1816,-3.4544 1.72719,1.1515 -1.72719,4.0301 -4.60586,9.2117 1.15146,9.2117 5.75733,-1.1514 2.30293,-9.2117 2.30293,-8.0603 6.33305,-5.7573 4.03013,-6.9088 0.57573,-9.7875 4.60586,-2.3029 1.7272,4.0301 2.30293,2.8787 2.87866,3.4544 -6.90879,5.1816 -2.87866,6.333 6.90879,3.4544 8.06026,-6.9088 4.60586,-5.7573 8.63599,-0.5757 -1.1515,4.6058 -5.1816,4.0302 2.8787,5.1816 7.4845,1.1514 0.5758,6.3331 -5.7574,-4.0301 -8.63596,-2.303 -1.15146,4.6059 1.72719,7.4845 -10.93891,-5.1816 -9.78746,-0.5757 -8.63598,7.4845 2.30293,4.6059 7.48452,1.7272 -0.57573,3.4544 -10.93892,1.7272 -4.03013,4.0301 5.75733,1.7272 3.45439,-2.3029 3.4544,2.8786 5.75732,-4.0301 8.63599,-1.1515 -2.30293,5.7573 -9.78745,3.4544 -8.63599,1.7272 -6.33306,-4.6058 -4.60586,-4.6059 -3.45439,2.8787 0.57573,7.4845 10.36318,14.3933 12.66612,7.4845 11.51465,8.0603 1.15146,8.636 6.90879,5.7573 4.60583,-2.8787 -2.8786,-6.333 12.0904,1.7272 4.6058,-8.0603 2.3029,1.1515 -1.1514,5.7573 4.6058,5.1816 -7.4845,-0.5757 -1.7272,3.4544 -5.1816,0 -4.0301,-1.1515 0.5757,9.2117 5.7574,5.7574 0.5757,4.0301 5.1816,4.6058 3.4544,-2.8786 4.6058,-0.5758 5.1816,5.7574 6.9088,-5.7574 c 0,0 2.3029,-8.0602 4.6059,-9.2117 2.3029,-1.1514 13.2418,-2.8786 16.1205,-2.8786 2.8787,0 11.5146,2.8786 13.8176,2.8786 2.3029,0 6.333,-3.4544 6.333,-3.4544 l 4.6059,0 0.5757,-6.9088 -5.7573,-8.6359 -3.4544,-5.7574 6.9088,2.303 c 0,0 4.0301,4.0301 6.333,4.0301 2.303,0 4.6059,3.4544 8.636,2.8787 4.0302,-0.5758 10.3632,-2.303 10.3632,-2.303 0,0 3.4544,1.1515 6.9088,5.1816 3.4544,4.0301 2.8787,6.3331 6.9088,8.0603 4.0301,1.7272 6.9088,3.4544 11.5146,2.8786 4.6059,-0.5757 11.5147,-2.8786 15.5448,-2.3029 4.0302,0.5757 5.7573,1.7272 6.3331,6.9088 0.5757,5.1816 -1.7272,10.9389 0,13.8176 1.7272,2.8786 5.7573,5.1816 9.7874,4.0301 4.0302,-1.1515 8.0603,-1.1515 11.5147,-3.4544 3.4544,-2.3029 10.9389,-5.1816 15.5448,-5.1816 4.6058,0 6.333,2.8787 11.5146,1.1515 5.1816,-1.7272 10.9389,-6.9088 12.6661,-10.3632 1.7272,-3.4544 -0.5757,-13.2419 0,-15.5448 0.5758,-2.3029 5.1816,-5.7573 8.0603,-8.0602 2.8786,-2.303 9.2117,-5.1816 13.8176,-4.0302 4.6058,1.1515 5.7573,2.8787 10.9389,5.1816 5.1816,2.303 6.9088,3.4544 12.6661,6.3331 5.7573,2.8786 8.0602,2.8786 12.6661,6.333 4.6059,3.4544 8.636,8.636 13.8176,9.7875 5.1816,1.1515 10.3632,6.333 16.6962,6.9088 6.3331,0.5757 12.6661,6.333 15.5448,4.0301 2.8787,-2.3029 4.6059,0.5757 4.6059,0.5757 0,0 2.8786,-7.4845 4.0301,-10.3631 1.1515,-2.8787 7.4845,-13.2419 7.4845,-13.2419 l 7.4845,-9.7874 0,-12.6662 -4.0301,-10.3631 -18.9992,-26.4837 c 0,0 -16.1205,-23.0293 -18.4234,-25.3323 -2.3029,-2.3029 -9.7875,-12.6661 -9.7875,-12.6661 0,0 -4.6058,-13.2418 -4.6058,-15.5448 0,-2.3029 2.8786,-7.4845 2.8786,-7.4845 0,0 20.1507,-6.9088 22.4536,-8.636 2.3029,-1.7272 10.9389,-13.2418 10.9389,-13.2418 0,0 10.939,-17.272 11.5147,-19.5749 0.5757,-2.303 4.6058,-12.0904 4.6058,-12.0904 0,0 -17.2719,-6.3331 -38.574,-2.8787 -21.3021,3.4544 -71.9666,1.1515 -90.9658,-4.6058 -18.9991,-5.7574 -35.1196,3.4544 -77.1481,-1.7272 -42.0285,-5.1816 -71.3908,-1.7272 -89.2386,-2.8787 -17.8477,-1.1515 -27.6351,-9.2117 -55.27028,-1.7272 -27.63516,7.4845 -57.57325,6.9088 -57.57325,6.9088 z">
                    </path>
                </g>

                <!-- Thiruvananthapuram -->
                <g id="thiruvananthapuram" class="district">
                    <path
                        d="m 1025.9553,2208.1036 0,10.3632 -4.0301,5.1816 5.7573,13.8176 68.5122,80.6025 20.7263,26.4837 c 0,0 5.1816,9.2117 7.4846,10.9389 2.3029,1.7272 7.4845,3.4544 7.4845,3.4544 l 10.3632,19.5749 9.2117,8.636 5.7573,10.9389 13.2419,11.5147 9.7874,8.636 3.4544,8.636 5.1816,7.4845 10.3632,8.636 10.3632,7.4845 10.9389,10.3632 10.9389,8.636 9.7875,8.636 8.6359,4.6058 2.8787,5.1816 11.5147,0 6.333,-10.9389 0.5757,-5.7573 15.5448,0 6.9088,-1.1515 0.5757,-18.9992 10.3632,-17.2719 7.4845,-15.5448 2.8787,-8.0603 5.7573,-5.1816 8.636,-5.1816 1.1515,-5.7573 -9.2117,-2.8786 c 0,0 -0.5758,-1.7272 -0.5758,-5.1816 0,-3.4544 -3.4544,-8.0603 -3.4544,-8.0603 0,0 -4.0301,-3.4544 -2.8786,-5.7573 1.1514,-2.3029 6.9088,-2.8787 6.9088,-2.8787 l 8.0602,3.4544 8.0603,0 2.8786,-5.7573 7.4846,-1.7272 5.7573,-5.7573 c 0,0 0.5757,-11.5147 0,-13.8176 -0.5757,-2.3029 -4.0301,-13.2419 -4.0301,-13.2419 l 2.3029,-8.6359 -3.4544,-3.4544 -4.0301,1.1514 -10.9389,-14.3933 -20.7264,-29.3623 c 0,0 -9.7875,-20.1507 -10.3632,-22.4536 -0.5757,-2.3029 -3.4544,-12.6661 -3.4544,-12.6661 l 15.5448,-8.636 8.636,-10.3632 -4.0302,-14.3933 -28.2109,-16.1205 -69.0879,-20.7264 c 0,0 -26.4836,32.8168 -41.4527,30.5138 -14.969,-2.3029 -50.0887,-20.7263 -60.4519,-27.0594 -10.3632,-6.3331 -21.8778,-13.8176 -37.4226,-12.6661 -15.5448,1.1515 -37.4226,12.0904 -38.5741,18.9992 -1.1515,6.9088 -13.8176,20.7263 -13.8176,20.7263 z">
                    </path>
                </g>

            </svg>